<svg width="42" height="50" viewBox="0 0 42 50" fill="none" xmlns="http://www.w3.org/2000/svg">
<g id="Facebook">
<path id="Vector" d="M28.7004 12.6201H23.5736C22.6298 12.6201 21.8647 13.5488 21.8647 14.6944V20.917H28.7004C28.8947 20.9118 29.0791 21.0216 29.1947 21.2114C29.3102 21.4012 29.3427 21.6472 29.2815 21.8712L28.0169 26.4345C27.9003 26.8532 27.5778 27.1364 27.2137 27.1397H21.8647V42.6964C21.8647 43.2691 21.482 43.7335 21.0102 43.7335H16.7378C16.2659 43.7335 15.8833 43.2691 15.8833 42.6964V27.1397H13.3199C12.848 27.1397 12.4655 26.6753 12.4655 26.1026V21.9541C12.4655 21.3814 12.848 20.917 13.3199 20.917H15.8833V14.6944C15.8833 10.1121 18.9439 6.39746 22.7191 6.39746H28.7004C29.1723 6.39746 29.5549 6.8618 29.5549 7.43457V11.583C29.5549 12.1558 29.1723 12.6201 28.7004 12.6201Z" fill="white"/>
</g>
</svg>
