<svg width="78" height="117" viewBox="0 0 78 117" fill="none" xmlns="http://www.w3.org/2000/svg">
<path d="M39.1121 38.4259C39.1121 28.6894 44.5611 25.8045 47.2856 25.5791H52.3154L54.8304 26.2552L57.974 29.636C58.98 30.7178 59.2315 32.3406 59.2315 33.0167V40.4543V56.0057C59.2315 61.9558 54.6208 63.8941 52.3154 64.1195H20.8789C20.4598 64.3449 17.9868 67.5002 11.448 78.3186C4.90921 89.1369 1.17874 81.4739 0.130859 76.2901L16.4778 51.9488H39.1121V38.4259Z" fill="white"/>
<ellipse cx="48.5437" cy="10.0276" rx="8.80222" ry="9.46606" fill="white"/>
<ellipse cx="20.2495" cy="79.6705" rx="4.40111" ry="4.73303" fill="white"/>
<ellipse cx="30.3103" cy="74.2614" rx="4.40111" ry="4.73303" fill="white"/>
<ellipse cx="40.3703" cy="78.318" rx="4.40111" ry="4.73303" fill="white"/>
<ellipse cx="51.6863" cy="76.9659" rx="4.40111" ry="4.73303" fill="white"/>
<ellipse cx="46.6582" cy="87.7848" rx="4.40111" ry="4.73303" fill="white"/>
<ellipse cx="46.6582" cy="99.9557" rx="4.40111" ry="4.73303" fill="white"/>
<ellipse cx="46.6577" cy="112.126" rx="4.40111" ry="4.73303" fill="white"/>
<ellipse cx="63.0046" cy="74.2614" rx="4.40111" ry="4.73303" fill="white"/>
<ellipse cx="73.063" cy="79.6705" rx="4.40111" ry="4.73303" fill="white"/>
</svg>
