<svg width="95" height="103" viewBox="0 0 95 103" fill="none" xmlns="http://www.w3.org/2000/svg">
<g clip-path="url(#clip0_1_1511)">
<path d="M76.6509 0.0336304H17.9009C13.2264 0.0336304 8.74345 2.04858 5.43812 5.63521C2.13279 9.22185 0.275879 14.0864 0.275879 19.1586L0.275879 82.9086C0.275879 93.4656 8.166 102.034 17.9009 102.034H76.6509C86.3799 102.034 94.2759 93.4656 94.2759 82.9086V19.1586C94.2759 8.59525 86.3799 0.0336304 76.6509 0.0336304ZM14.9634 89.2836C14.184 89.2833 13.4367 88.9471 12.8858 88.349C12.335 87.7508 12.0256 86.9397 12.0259 86.094C12.0261 85.2483 12.336 84.4374 12.8872 83.8397C13.4385 83.2419 14.186 82.9062 14.9653 82.9065C15.7447 82.9068 16.492 83.243 17.0429 83.8412C17.5938 84.4393 17.9031 85.2505 17.9028 86.0961C17.9026 86.9418 17.5927 87.7527 17.0415 88.3505C16.4902 88.9482 15.7427 89.2839 14.9634 89.2836ZM14.9634 19.1586C14.184 19.1583 13.4367 18.8221 12.8858 18.224C12.335 17.6258 12.0256 16.8147 12.0259 15.969C12.0261 15.1233 12.336 14.3124 12.8872 13.7147C13.4385 13.1169 14.186 12.7812 14.9653 12.7815C15.7447 12.7818 16.492 13.118 17.0429 13.7162C17.5938 14.3143 17.9031 15.1255 17.9028 15.9711C17.9026 16.8168 17.5927 17.6277 17.0415 18.2255C16.4902 18.8232 15.7427 19.1589 14.9634 19.1586ZM64.9009 82.9086C64.9009 86.434 62.2748 89.2836 59.0259 89.2836H35.5259C33.9677 89.2836 32.4734 88.612 31.3716 87.4164C30.2698 86.2209 29.6509 84.5994 29.6509 82.9086V19.1586C29.6509 15.6396 32.2829 12.7836 35.5259 12.7836H59.0259C60.584 12.7836 62.0784 13.4553 63.1801 14.6508C64.2819 15.8464 64.9009 17.4679 64.9009 19.1586V82.9086ZM79.5884 89.2836C77.9728 89.2836 76.6509 87.8556 76.6509 86.0961C76.6509 84.343 77.9728 82.9086 79.5884 82.9086C81.204 82.9086 82.5259 84.343 82.5259 86.0961C82.5259 87.8556 81.204 89.2836 79.5884 89.2836ZM79.5884 19.1586C77.9728 19.1586 76.6509 17.7306 76.6509 15.9711C76.6509 14.2116 77.9728 12.7836 79.5884 12.7836C81.204 12.7836 82.5259 14.2116 82.5259 15.9711C82.5259 17.7306 81.204 19.1586 79.5884 19.1586ZM53.1509 51.0336H41.4009C38.1579 51.0336 35.5259 53.8896 35.5259 57.4086V76.5336C35.5259 78.2244 36.1449 79.8459 37.2466 81.0414C38.3484 82.237 39.8427 82.9086 41.4009 82.9086H53.1509C56.3998 82.9086 59.0259 80.059 59.0259 76.5336V57.4086C59.0259 55.7179 58.4069 54.0964 57.3051 52.9008C56.2034 51.7053 54.709 51.0336 53.1509 51.0336Z" fill="white"/>
</g>
<defs>
<clipPath id="clip0_1_1511">
<rect width="94" height="102" fill="white" transform="translate(0.275879 0.0333862)"/>
</clipPath>
</defs>
</svg>
