<svg width="95" height="108" viewBox="0 0 95 108" fill="none" xmlns="http://www.w3.org/2000/svg">
<path d="M61.5476 87.0531C61.5476 87.5493 61.7232 88.0252 62.0357 88.3761C62.3482 88.7269 62.7721 88.924 63.214 88.924C63.656 88.924 64.0798 88.7269 64.3923 88.3761C64.7048 88.0252 64.8804 87.5493 64.8804 87.0531C65.2137 83.6856 67.0467 81.2534 70.5461 79.7567C70.8795 79.6337 71.1698 79.3956 71.3756 79.0765C71.5814 78.7573 71.6922 78.3734 71.6922 77.9794C71.6922 77.5854 71.5814 77.2014 71.3756 76.8823C71.1698 76.5631 70.8795 76.3251 70.5461 76.2021C67.0467 74.7054 65.2137 72.2732 64.8804 68.9056C64.8804 68.4094 64.7048 67.9336 64.3923 67.5827C64.0798 67.2319 63.656 67.0348 63.214 67.0348C62.7721 67.0348 62.3482 67.2319 62.0357 67.5827C61.7232 67.9336 61.5476 68.4094 61.5476 68.9056C61.2144 72.2732 59.3814 74.7054 55.882 76.2021C55.5447 76.3497 55.254 76.6062 55.0464 76.9392C54.8388 77.2721 54.7236 77.6666 54.7155 78.0729C54.7543 78.4465 54.8836 78.8009 55.0892 79.0978C55.2949 79.3946 55.569 79.6225 55.882 79.7567C59.3814 81.2534 61.2144 83.6856 61.5476 87.0531ZM85.5435 89.2982C82.0442 87.8015 80.2111 85.3694 79.8778 82.0018C79.8778 81.5056 79.7023 81.0297 79.3898 80.6789C79.0773 80.328 78.6534 80.1309 78.2115 80.1309C77.7695 80.1309 77.3457 80.328 77.0332 80.6789C76.7206 81.0297 76.5451 81.5056 76.5451 82.0018C76.2118 85.3694 74.3788 87.8015 70.8794 89.2982C70.546 89.4212 70.2557 89.6593 70.0499 89.9784C69.8441 90.2976 69.7333 90.6815 69.7333 91.0755C69.7333 91.4695 69.8441 91.8535 70.0499 92.1726C70.2557 92.4918 70.546 92.7298 70.8794 92.8529C74.3788 94.3496 76.2118 96.7817 76.5451 100.149C76.5451 100.645 76.7206 101.121 77.0332 101.472C77.3457 101.823 77.7695 102.02 78.2115 102.02C78.6534 102.02 79.0773 101.823 79.3898 101.472C79.7023 101.121 79.8778 100.645 79.8778 100.149C80.2111 96.7817 82.0442 94.3496 85.5435 92.8529C85.8769 92.7298 86.1672 92.4918 86.373 92.1726C86.5788 91.8535 86.6896 91.4695 86.6896 91.0755C86.6896 90.6815 86.5788 90.2976 86.373 89.9784C86.1672 89.6593 85.8769 89.4212 85.5435 89.2982ZM92.5424 1.74116C92.091 1.20909 91.5481 0.785493 90.9466 0.496055C90.345 0.206618 89.6974 0.057373 89.0429 0.057373C88.3885 0.057373 87.7409 0.206618 87.1393 0.496055C86.5378 0.785493 85.9949 1.20909 85.5435 1.74116L38.3849 54.687L45.3837 62.5447L92.5424 9.59884C93.0163 9.09211 93.3936 8.48258 93.6514 7.80723C93.9092 7.13188 94.0421 6.40477 94.0421 5.67C94.0421 4.93524 93.9092 4.20813 93.6514 3.53278C93.3936 2.85742 93.0163 2.2479 92.5424 1.74116ZM45.0505 85.9306L47.7167 78.4471C48.3051 76.7429 48.4452 74.8848 48.1202 73.0938C47.7953 71.3029 47.019 69.6544 45.8837 68.3444L33.2192 54.1257C32.0524 52.8511 30.5841 51.9795 28.9888 51.6147C27.3936 51.2498 25.7386 51.4071 24.2207 52.0677L17.5552 55.0612L45.0505 85.9306ZM58.5482 96.2204C52.0493 94.9108 49.2164 98.2784 44.5506 93.0399C44.3691 92.18 44.2575 91.3033 44.2173 90.4207L37.7184 82.9372C37.2258 86.8042 37.3955 90.7411 38.2183 94.5367C39.7181 100.336 46.3836 104.452 46.5502 104.452L52.3825 108.007H64.0472C64.4892 108.032 64.9218 107.858 65.2499 107.525C65.5781 107.192 65.7748 106.726 65.7969 106.23C65.819 105.733 65.6646 105.248 65.3678 104.879C65.0709 104.511 64.6558 104.29 64.2139 104.265C57.5483 103.891 52.3825 102.207 49.0498 99.7751C52.0493 100.149 54.5489 99.2138 58.0483 99.7751C64.0472 100.898 69.0464 104.452 69.0464 107.633H72.3791C72.3791 101.833 65.3803 97.5301 58.5482 96.2204Z" fill="white"/>
<path d="M34.8852 95.6586C33.3854 89.8589 34.3853 82.3754 34.7185 79.7562L26.5533 70.4018C24.8869 72.8339 21.8874 78.8207 22.054 89.8589H18.7213C18.5546 77.324 22.2207 70.4018 24.0537 67.7826L14.3887 56.7444C2.39075 64.7892 0.724365 78.2595 0.724365 89.2976C0.724365 100.336 6.05679 108.006 14.0554 108.006H44.8835C44.5502 107.632 36.8848 102.955 34.8852 95.6586ZM14.8886 104.265C12.195 101.164 10.6982 96.9964 10.7227 92.6652C10.8003 89.2635 11.4212 85.905 12.5557 82.7496C12.1943 86.422 12.2503 90.1312 12.7223 93.7878C13.4515 97.6348 14.9947 101.228 17.2215 104.265H14.8886ZM28.8862 104.265C27.2392 100.961 26.4864 97.1902 26.7199 93.4136C27.7614 97.2818 29.3358 100.943 31.3858 104.265H28.8862Z" fill="white"/>
</svg>
