<svg width="79" height="122" viewBox="0 0 79 122" fill="none" xmlns="http://www.w3.org/2000/svg">
<path d="M27.5503 27.7645C34.4318 26.186 38.7113 19.4122 37.1089 12.6346C35.5064 5.85696 28.6287 1.6422 21.7472 3.22063C14.8657 4.79905 10.5862 11.5729 12.1887 18.3505C13.7911 25.1281 20.6688 29.3429 27.5503 27.7645Z" fill="white"/>
<path d="M36.8912 33.5132C37.4161 33.5132 37.9394 33.5855 38.4478 33.7272C41.4651 34.5742 43.2214 37.6793 42.3642 40.6488C42.0469 41.7054 40.2479 47.1985 35.2685 53.6972C34.1629 55.1431 32.8377 56.7071 31.2748 58.3143C31.5671 60.7455 31.7565 63.2069 31.7645 65.6309H22.4705C18.2532 68.4536 13.1413 71.059 6.98347 73.0163C6.41473 73.1984 5.8255 73.2897 5.23229 73.2897H5.23059C4.39396 73.2891 3.5943 73.1071 2.86914 72.7816C2.8754 73.0673 2.89417 73.3536 2.93625 73.6398L8.05557 108.371C8.56915 111.857 11.608 114.369 15.0819 114.369C15.422 114.369 15.7655 114.345 16.1125 114.295C19.9982 113.74 22.6912 110.187 22.127 106.36L21.1635 99.8201C23.5551 101.203 25.9535 101.894 27.2412 102.201L31.2293 121.057H78.3172V64.6421C78.3155 61.9398 76.0939 59.75 73.3503 59.7489H63.2089C60.4641 59.75 58.2426 61.9409 58.2415 64.6421V79.6355H61.0863L61.0846 64.6421C61.0875 63.4882 62.0362 62.5521 63.2089 62.5493H73.3503C74.5213 62.5515 75.4717 63.4876 75.4734 64.6421V97.3289C72.8361 97.3289 70.5105 98.6325 69.1171 100.619L61.042 92.1696L58.5577 94.4725L67.7919 104.136C67.7635 104.4 67.7481 104.667 67.7481 104.939C67.7481 109.141 71.2067 112.547 75.4734 112.547V118.256H33.5418L29.6413 99.8184L28.6909 99.6559C28.6909 99.6559 28.5419 99.6307 28.2303 99.5601C27.1371 99.3187 24.3013 98.5462 21.8677 96.9592C21.4269 96.6679 21.0032 96.357 20.6033 96.0237L19.19 86.4311H34.8078V83.6307H18.7776L18.189 79.636H41.8228C43.3516 79.636 44.7638 79.1565 45.9229 78.3482C48.5841 77.0637 50.8096 74.5563 51.7577 69.7493C53.2285 57.3048 52.3964 49.949 48.5261 38.6479C45.6624 30.4456 38.6241 27.8486 33.7687 29.0407C28.9145 30.2328 26.7794 36.9057 28.4111 42.4806C28.472 42.7865 28.5374 43.1069 28.6016 43.4229C30.6491 40.0483 31.4164 37.6014 31.4266 37.5701C32.1245 35.1803 34.371 33.5132 36.8912 33.5132Z" fill="white"/>
<path d="M5.23339 72.1694C5.69749 72.1694 6.16955 72.0988 6.63479 71.9504C20.4958 67.5445 29.2323 59.7299 34.3619 53.0223C39.5091 46.3051 41.1585 40.7139 41.2699 40.3425C41.9575 37.9611 40.555 35.4834 38.1384 34.8056C35.7263 34.1306 33.2147 35.5042 32.5226 37.8771L32.5209 37.8766C32.4549 38.104 30.9801 42.7418 26.6969 48.1375C22.396 53.5416 15.3839 59.7294 3.8337 63.4216C1.44268 64.1834 0.130571 66.7104 0.905208 69.0654C1.52799 70.9622 3.31272 72.1688 5.23339 72.1694ZM32.5186 37.8906L32.518 37.8911L32.5169 37.89L32.5186 37.8906Z" fill="white"/>
<path d="M44.9918 84.2634C44.696 84.157 44.369 84.3054 44.2615 84.5967C44.1535 84.8869 44.3042 85.209 44.5999 85.3154C45.1232 85.5048 45.643 85.7104 46.1543 85.9288C46.2283 85.9602 46.305 85.9753 46.3801 85.9753C46.6008 85.9753 46.8101 85.8487 46.9028 85.637C47.0268 85.3535 46.8943 85.0236 46.6065 84.9003C46.0753 84.674 45.5372 84.46 44.9918 84.2634Z" fill="white"/>
<path d="M48.6776 87.1269C49.1803 87.389 49.6717 87.6596 50.15 87.9335C50.2399 87.9845 50.3383 88.0092 50.4356 88.0092C50.6318 88.0092 50.8229 87.9094 50.9287 87.7307C51.0851 87.4624 50.9935 87.1201 50.7228 86.9638C50.2325 86.6838 49.7275 86.4059 49.2099 86.1365C48.9318 85.9919 48.5871 86.0956 48.441 86.3695C48.2937 86.6429 48.3994 86.9818 48.6776 87.1269Z" fill="white"/>
<path d="M53.1681 88.4649C52.9059 88.2935 52.5527 88.3635 52.3798 88.6217C52.2052 88.8794 52.2763 89.2267 52.5391 89.3981C53.0288 89.718 53.4951 90.0345 53.9314 90.3409C54.0315 90.4104 54.1464 90.4446 54.2595 90.4446C54.4376 90.4446 54.6127 90.3628 54.7242 90.2087C54.9056 89.9561 54.8459 89.6071 54.5905 89.4273C54.1452 89.1147 53.668 88.792 53.1681 88.4649Z" fill="white"/>
<path d="M40.4822 83.0966C40.171 83.0506 39.8816 83.2618 39.8361 83.5688C39.7911 83.8741 40.0044 84.1592 40.3155 84.2041C40.8547 84.2842 41.399 84.3889 41.941 84.5172C41.9854 84.5278 42.0303 84.5329 42.0741 84.5329C42.3306 84.5329 42.5632 84.3598 42.6263 84.1032C42.6986 83.8013 42.5109 83.4993 42.2049 83.4282C41.6333 83.2926 41.0589 83.1812 40.4822 83.0966Z" fill="white"/>
<path d="M56.0926 91.2197C55.8964 91.4623 55.9379 91.8152 56.1847 92.0068C56.7472 92.4465 57.1903 92.8112 57.4889 93.0633C57.5958 93.1535 57.7272 93.1977 57.858 93.1977C58.0184 93.1977 58.1782 93.1316 58.2908 93.0017C58.495 92.7675 58.4677 92.4135 58.2294 92.2118C57.9206 91.9508 57.4673 91.5777 56.8917 91.1284C56.646 90.9363 56.2877 90.9772 56.0926 91.2197Z" fill="white"/>
<path d="M58.9627 91.5878C59.0679 91.7665 59.2585 91.8667 59.4547 91.8667C59.5514 91.8667 59.6498 91.8426 59.7396 91.7906C60.012 91.6348 60.1042 91.292 59.9455 91.0237C59.9444 91.0225 59.6247 90.4814 59.1242 89.5638C58.9746 89.291 58.63 89.1879 58.3536 89.3353C58.0766 89.4815 57.9725 89.8209 58.1221 90.0938C58.63 91.0265 58.9599 91.5833 58.9627 91.5878Z" fill="white"/>
<path d="M53.0916 75.178C53.0973 75.178 53.1024 75.178 53.1075 75.178C53.4215 75.1696 53.6689 74.9119 53.6604 74.6032C53.6592 74.5214 53.6569 74.4385 53.6581 74.3579C53.6569 74.1926 53.6621 74.0352 53.6729 73.8856C53.6933 73.5775 53.4567 73.3092 53.1439 73.289C52.83 73.2672 52.5593 73.5002 52.5382 73.81C52.5251 73.9909 52.52 74.1747 52.52 74.3584C52.52 74.4503 52.5212 74.5422 52.524 74.6351C52.5325 74.9371 52.7851 75.178 53.0916 75.178Z" fill="white"/>
<path d="M54.2738 81.8767C54.4769 82.4095 54.6896 82.9394 54.9074 83.4604C54.9973 83.6755 55.2089 83.8066 55.4329 83.8066C55.5057 83.8066 55.5797 83.7931 55.6508 83.764C55.9403 83.6469 56.079 83.3181 55.959 83.0318V83.0329C55.7452 82.5221 55.537 82.0039 55.3397 81.4835C55.2282 81.1933 54.9006 81.0471 54.606 81.1563C54.3114 81.2639 54.1635 81.5866 54.2738 81.8767Z" fill="white"/>
<path d="M56.8089 87.579C56.9084 87.7773 57.1098 87.8927 57.3202 87.8927C57.4044 87.8927 57.4897 87.8742 57.5704 87.835C57.852 87.6983 57.9674 87.3616 57.8287 87.0849C57.5921 86.6087 57.3458 86.1045 57.0967 85.5774C56.9636 85.2973 56.6257 85.1752 56.3414 85.3057C56.0559 85.4362 55.933 85.7696 56.0655 86.0497C56.3186 86.5846 56.5672 87.0972 56.8089 87.579Z" fill="white"/>
<path d="M53.3489 76.8465C53.0423 76.9132 52.8484 77.2123 52.9172 77.5142C53.04 78.0604 53.1874 78.6172 53.354 79.1786C53.4257 79.4234 53.6526 79.5819 53.8989 79.5819C53.9518 79.5819 54.0058 79.5746 54.0587 79.5589C54.359 79.4721 54.5336 79.1617 54.4454 78.8643C54.2862 78.3231 54.1451 77.7904 54.0285 77.2711C53.9597 76.9697 53.6554 76.7793 53.3489 76.8465Z" fill="white"/>
<path d="M54.761 86.2636L53.6218 85.0127C53.4125 84.7808 53.053 84.7618 52.8193 84.9679C52.5855 85.1757 52.5662 85.5292 52.7755 85.7594L53.9147 87.0109C54.0267 87.1347 54.1825 87.198 54.3384 87.198C54.4732 87.198 54.6091 87.1504 54.7172 87.054C54.9509 86.8479 54.972 86.4944 54.761 86.2636Z" fill="white"/>
<path d="M48.6868 79.5902L48.2198 79.0765C48.0105 78.8463 47.6505 78.8266 47.4179 79.0328C47.1836 79.2395 47.1631 79.5935 47.3735 79.8243L47.8399 80.3369C47.9525 80.4607 48.1083 80.524 48.2647 80.524C48.3995 80.524 48.5355 80.477 48.6435 80.3806C48.8762 80.1739 48.8972 79.8204 48.6868 79.5902Z" fill="white"/>
<path d="M51.6801 83.7174C51.9138 83.5113 51.9332 83.1578 51.7239 82.927L50.5858 81.6756C50.3765 81.4453 50.0165 81.4246 49.7821 81.6319C49.5484 81.8386 49.5291 82.1921 49.7384 82.4223L50.8776 83.6732C50.9896 83.797 51.1454 83.8592 51.3007 83.8597C51.4355 83.8609 51.5709 83.8132 51.6801 83.7174Z" fill="white"/>
</svg>
