<svg width="42" height="50" viewBox="0 0 42 50" fill="none" xmlns="http://www.w3.org/2000/svg">
<g id="Instagram">
<path id="Vector" fill-rule="evenodd" clip-rule="evenodd" d="M29.4455 5.99951H12.5567C6.72699 5.99951 2.0011 10.601 2.0011 16.2773V32.7217C2.0011 38.3979 6.72699 42.9995 12.5567 42.9995H29.4455C35.2752 42.9995 40.0011 38.3979 40.0011 32.7217V16.2773C40.0011 10.601 35.2752 5.99951 29.4455 5.99951ZM36.3067 32.7217C36.295 36.4065 33.2299 39.391 29.4455 39.4023H12.5567C8.77217 39.391 5.70713 36.4065 5.69554 32.7217V16.2773C5.70713 12.5924 8.77217 9.60802 12.5567 9.59673H29.4455C33.2299 9.60802 36.295 12.5924 36.3067 16.2773V32.7217ZM31.0289 16.7912C32.1948 16.7912 33.14 15.8709 33.14 14.7356C33.14 13.6004 32.1948 12.6801 31.0289 12.6801C29.8629 12.6801 28.9178 13.6004 28.9178 14.7356C28.9178 15.8709 29.8629 16.7912 31.0289 16.7912ZM21.0011 15.2495C15.7544 15.2495 11.5011 19.3909 11.5011 24.4995C11.5011 29.6082 15.7544 33.7495 21.0011 33.7495C26.2478 33.7495 30.5011 29.6082 30.5011 24.4995C30.5068 22.0446 29.5076 19.6886 27.7248 17.9527C25.9419 16.2168 23.5224 15.244 21.0011 15.2495ZM15.1955 24.4995C15.1955 27.6215 17.7947 30.1523 21.0011 30.1523C24.2075 30.1523 26.8067 27.6215 26.8067 24.4995C26.8067 21.3775 24.2075 18.8467 21.0011 18.8467C17.7947 18.8467 15.1955 21.3775 15.1955 24.4995Z" fill="white"/>
</g>
</svg>
