<svg width="406" height="91" viewBox="0 0 406 91" fill="none" xmlns="http://www.w3.org/2000/svg">
<g clip-path="url(#clip0_1_2230)">
<path d="M391.631 90.3525H391.633C391.633 90.3525 391.633 90.3525 391.631 90.3587V90.3525Z" fill="white"/>
<path d="M133.712 54.7962C133.369 54.2086 132.892 53.7546 132.278 53.4327C131.664 53.1123 130.969 52.9513 130.194 52.9513C129.419 52.9513 128.685 53.1123 128.074 53.4327C127.465 53.7546 126.995 54.207 126.661 54.7898C126.33 55.3726 126.164 56.0504 126.164 56.8231C126.164 57.5959 126.338 58.2447 126.684 58.8226C127.031 59.4006 127.508 59.8481 128.117 60.1653C128.727 60.4808 129.425 60.6402 130.208 60.6402C130.991 60.6402 131.677 60.4808 132.286 60.1653C132.896 59.8481 133.371 59.4006 133.712 58.8226C134.052 58.2447 134.224 57.5782 134.224 56.8231C134.224 56.0681 134.052 55.3839 133.712 54.7962ZM131.42 58.1513C131.092 58.4861 130.674 58.6536 130.165 58.6536C129.656 58.6536 129.272 58.4749 128.955 58.1159C128.636 57.7585 128.476 57.2948 128.476 56.7249C128.476 56.2017 128.644 55.7735 128.977 55.4386C129.309 55.1021 129.733 54.9363 130.251 54.9363C130.73 54.9363 131.127 55.1166 131.441 55.4804C131.755 55.8459 131.913 56.3063 131.913 56.865C131.913 57.3882 131.749 57.8164 131.422 58.1513H131.42Z" fill="white"/>
<path d="M146.278 53.2459C146.015 53.0688 145.64 52.9803 145.15 52.9803C144.153 52.9803 143.571 53.3489 143.405 54.0831C143.193 53.7112 142.902 53.4294 142.532 53.2379C142.163 53.0463 141.733 52.9513 141.243 52.9513C140.578 52.9513 139.993 53.1026 139.485 53.4053C138.978 53.7079 138.584 54.133 138.3 54.6787C138.02 55.2229 137.878 55.8491 137.878 56.5575C137.878 57.2658 138.013 57.8776 138.28 58.4169C138.548 58.9578 138.93 59.3748 139.43 59.6678C139.93 59.9624 140.504 60.1089 141.162 60.1089C142.056 60.1089 142.777 59.8063 143.321 59.2009V59.4666C143.321 60.0268 143.157 60.4502 142.823 60.7384C142.492 61.0266 142.067 61.1731 141.549 61.1731C141.142 61.1731 140.731 61.0555 140.318 60.8221C140.253 60.7963 140.16 60.7481 140.04 60.6837C139.919 60.6177 139.814 60.5677 139.721 60.5372C139.629 60.5033 139.528 60.4872 139.418 60.4872C139.141 60.4872 138.911 60.5774 138.733 60.7593C138.552 60.9412 138.463 61.1715 138.463 61.4516C138.463 61.9168 138.741 62.2855 139.292 62.5544C139.597 62.7025 139.951 62.82 140.351 62.9053C140.753 62.989 141.154 63.0309 141.549 63.0309C142.334 63.0309 143.027 62.8763 143.634 62.5689C144.236 62.2614 144.715 61.8009 145.059 61.1859C145.405 60.571 145.579 59.8143 145.579 58.9208V54.9524L145.814 54.9653H145.869C146.082 54.9653 146.268 54.8751 146.429 54.6948C146.59 54.5129 146.672 54.2859 146.672 54.017C146.672 53.6806 146.539 53.4262 146.276 53.2491L146.278 53.2459ZM143.24 57.7037C143.008 57.8808 142.787 58.0112 142.575 58.0949C142.362 58.1803 142.141 58.2205 141.91 58.2205C141.366 58.2205 140.943 58.0756 140.643 57.781C140.343 57.4864 140.192 57.071 140.192 56.5285C140.192 56.0262 140.345 55.6189 140.65 55.3066C140.954 54.9943 141.355 54.8365 141.855 54.8365C142.326 54.8365 142.787 55.0104 143.24 55.3533V57.7021V57.7037Z" fill="white"/>
<path d="M152.919 53.1606C152.734 53.0205 152.488 52.9513 152.185 52.9513C151.815 52.9513 151.469 53.1026 151.147 53.4053C150.825 53.7079 150.504 54.1813 150.19 54.8252V54.4195C150.19 53.98 150.048 53.6339 149.762 53.3779C149.475 53.1203 149.093 52.9932 148.611 52.9932C148.129 52.9932 147.758 53.0849 147.49 53.2717C147.222 53.46 147.088 53.7192 147.088 54.0541C147.088 54.3165 147.168 54.5322 147.322 54.7045C147.48 54.8783 147.673 54.9637 147.904 54.9637H148.182V59.4666C148.192 59.8304 148.3 60.117 148.507 60.3263C148.716 60.5372 148.998 60.6418 149.361 60.6418C149.723 60.6418 149.99 60.5339 150.198 60.3198C150.407 60.1057 150.514 59.8224 150.525 59.4682V55.8475L152.351 55.218C152.655 55.115 152.891 54.9572 153.057 54.7479C153.225 54.5387 153.306 54.294 153.306 54.0154C153.306 53.6613 153.177 53.3763 152.919 53.1622V53.1606Z" fill="white"/>
<path d="M160.079 57.9967C159.941 57.9967 159.819 58.0193 159.717 58.0676C159.615 58.1143 159.469 58.1964 159.276 58.3187C159.016 58.4845 158.77 58.6085 158.536 58.689C158.298 58.7695 158.033 58.8081 157.74 58.8081C157.242 58.8081 156.816 58.7019 156.465 58.4861C156.115 58.272 155.91 57.9372 155.855 57.48H159.941C160.272 57.48 160.556 57.385 160.792 57.1934C161.027 57.0034 161.145 56.7265 161.145 56.3627C161.145 55.7574 161.004 55.1955 160.724 54.6787C160.441 54.1619 160.024 53.7434 159.469 53.4262C158.915 53.1091 158.25 52.9513 157.475 52.9513C156.7 52.9513 155.974 53.1139 155.384 53.4407C154.793 53.7659 154.34 54.2231 154.025 54.8123C153.711 55.3983 153.555 56.0697 153.555 56.8247C153.555 57.5798 153.716 58.2189 154.04 58.7969C154.362 59.3748 154.831 59.8272 155.445 60.154C156.059 60.4792 156.791 60.6434 157.641 60.6434C158.056 60.6434 158.493 60.5871 158.949 60.4744C159.406 60.3633 159.802 60.22 160.134 60.0397C160.706 59.7242 160.993 59.3555 160.993 58.9369C160.993 58.6568 160.907 58.4314 160.736 58.2591C160.564 58.0869 160.346 57.9999 160.078 57.9999L160.079 57.9967ZM156.367 55.0554C156.671 54.8365 157.027 54.7254 157.434 54.7254C157.894 54.7254 158.245 54.8413 158.486 55.0683C158.727 55.2969 158.859 55.5964 158.888 55.9699L157.655 55.9843C156.926 55.9843 156.322 56.0117 155.84 56.0681C155.888 55.6109 156.064 55.2728 156.367 55.0554Z" fill="white"/>
<path d="M168.513 57.9967C168.374 57.9967 168.254 58.0193 168.152 58.0676C168.05 58.1143 167.904 58.1964 167.709 58.3187C167.451 58.4845 167.203 58.6085 166.969 58.689C166.735 58.7695 166.468 58.8081 166.173 58.8081C165.676 58.8081 165.25 58.7019 164.899 58.4861C164.548 58.272 164.344 57.9372 164.29 57.48H168.374C168.707 57.48 168.991 57.385 169.227 57.1934C169.462 57.0034 169.58 56.7265 169.58 56.3627C169.58 55.7574 169.439 55.1955 169.157 54.6787C168.876 54.1619 168.459 53.7434 167.904 53.4262C167.349 53.1091 166.684 52.9513 165.908 52.9513C165.133 52.9513 164.408 53.1139 163.819 53.4407C163.228 53.7659 162.775 54.2231 162.46 54.8123C162.146 55.3983 161.99 56.0697 161.99 56.8247C161.99 57.5798 162.151 58.2189 162.475 58.7969C162.797 59.3748 163.266 59.8272 163.88 60.154C164.494 60.4792 165.226 60.6434 166.074 60.6434C166.491 60.6434 166.928 60.5871 167.384 60.4744C167.84 60.3633 168.235 60.22 168.569 60.0397C169.141 59.7242 169.427 59.3555 169.427 58.9369C169.427 58.6568 169.341 58.4314 169.17 58.2591C168.999 58.0869 168.781 57.9999 168.511 57.9999L168.513 57.9967ZM164.802 55.0554C165.106 54.8365 165.462 54.7254 165.869 54.7254C166.33 54.7254 166.68 54.8413 166.921 55.0683C167.16 55.2969 167.294 55.5964 167.321 55.9699L166.09 55.9843C165.36 55.9843 164.757 56.0117 164.275 56.0681C164.322 55.6109 164.497 55.2728 164.802 55.0554Z" fill="white"/>
<path d="M179.426 58.8854C179.259 58.7228 179.08 58.6407 178.886 58.6407H178.817L178.512 58.6552V55.3694C178.512 54.6336 178.287 54.046 177.841 53.6081C177.393 53.1686 176.795 52.9513 176.048 52.9513C174.986 52.9513 174.115 53.423 173.431 54.3632C173.34 53.906 173.151 53.5647 172.865 53.3361C172.578 53.1075 172.163 52.9948 171.618 52.9948C171.128 52.9948 170.744 53.0865 170.462 53.2733C170.181 53.4616 170.039 53.7208 170.039 54.0557C170.039 54.3181 170.116 54.5338 170.269 54.7061C170.422 54.88 170.599 54.9653 170.801 54.9653H170.856L171.16 54.9395V59.4827C171.16 59.8288 171.269 60.1057 171.486 60.3198C171.702 60.5339 171.988 60.6418 172.339 60.6418C172.69 60.6418 172.959 60.5339 173.176 60.3198C173.393 60.1057 173.503 59.8272 173.503 59.4827V55.5819C173.781 55.3758 174.044 55.2293 174.292 55.1408C174.541 55.0522 174.8 55.0071 175.068 55.0071C175.407 55.0071 175.678 55.1086 175.876 55.3082C176.074 55.5078 176.174 55.7751 176.174 56.1115V59.0174C176.174 59.5406 176.334 59.9367 176.651 60.2055C176.97 60.476 177.434 60.6112 178.045 60.6112C178.56 60.6112 178.962 60.513 179.249 60.3166C179.535 60.1218 179.68 59.8417 179.68 59.4794C179.68 59.246 179.597 59.048 179.431 58.8838L179.426 58.8854Z" fill="white"/>
<path d="M201.722 58.7261L199.701 56.6558L201.543 54.8817C201.765 54.6675 201.875 54.4019 201.875 54.0848C201.875 53.7966 201.778 53.5471 201.583 53.3378C201.39 53.1285 201.13 53.0222 200.808 53.0222C200.604 53.0222 200.425 53.0625 200.267 53.1414C200.111 53.2219 199.95 53.3539 199.783 53.5406L197.665 55.8492H197.153V51.612C197.153 51.092 196.993 50.6927 196.674 50.4158C196.357 50.1405 195.902 50.0037 195.311 50.0037C194.831 50.0037 194.462 50.0954 194.202 50.2757C193.944 50.4577 193.815 50.7169 193.815 51.0517C193.815 51.3141 193.894 51.5298 194.052 51.7021C194.209 51.876 194.406 51.9613 194.647 51.9613H194.815V59.4828C194.815 59.8289 194.922 60.1058 195.14 60.3199C195.357 60.534 195.642 60.6419 195.993 60.6419C196.344 60.6419 196.625 60.534 196.837 60.3199C197.049 60.1058 197.156 59.8273 197.156 59.4828V57.6652H197.751L199.968 60.0977C200.271 60.4439 200.613 60.6145 200.993 60.6145C201.325 60.6145 201.586 60.5099 201.776 60.3006C201.966 60.0897 202.06 59.8402 202.06 59.552C202.06 59.2268 201.95 58.9515 201.727 58.7277L201.722 58.7261Z" fill="white"/>
<path d="M209.146 57.9967C209.007 57.9967 208.886 58.0193 208.785 58.0676C208.683 58.1143 208.535 58.1964 208.342 58.3187C208.084 58.4845 207.837 58.6085 207.602 58.689C207.368 58.7695 207.1 58.8081 206.806 58.8081C206.309 58.8081 205.883 58.7019 205.532 58.4861C205.181 58.272 204.977 57.9372 204.921 57.48H209.007C209.339 57.48 209.623 57.385 209.859 57.1934C210.093 57.0034 210.213 56.7265 210.213 56.3627C210.213 55.7574 210.071 55.1955 209.79 54.6787C209.508 54.1619 209.09 53.7434 208.535 53.4262C207.982 53.1091 207.317 52.9513 206.542 52.9513C205.766 52.9513 205.041 53.1139 204.451 53.4407C203.859 53.7659 203.406 54.2231 203.095 54.8123C202.781 55.3983 202.623 56.0697 202.623 56.8247C202.623 57.5798 202.784 58.2189 203.109 58.7969C203.432 59.3748 203.901 59.8272 204.515 60.154C205.129 60.4792 205.859 60.6434 206.709 60.6434C207.124 60.6434 207.561 60.5871 208.017 60.4744C208.474 60.3633 208.87 60.22 209.202 60.0397C209.774 59.7242 210.061 59.3555 210.061 58.9369C210.061 58.6568 209.975 58.4314 209.805 58.2591C209.632 58.0869 209.414 57.9999 209.146 57.9999V57.9967ZM205.435 55.0554C205.738 54.8365 206.095 54.7254 206.5 54.7254C206.961 54.7254 207.312 54.8413 207.553 55.0683C207.793 55.2969 207.926 55.5964 207.955 55.9699L206.722 55.9843C205.993 55.9843 205.388 56.0117 204.91 56.0681C204.956 55.6109 205.132 55.2728 205.436 55.0554H205.435Z" fill="white"/>
<path d="M217.578 57.9967C217.439 57.9967 217.319 58.0193 217.217 58.0676C217.115 58.1143 216.968 58.1964 216.775 58.3187C216.515 58.4845 216.268 58.6085 216.034 58.689C215.799 58.7695 215.533 58.8081 215.238 58.8081C214.74 58.8081 214.315 58.7019 213.964 58.4861C213.613 58.272 213.41 57.9372 213.355 57.48H217.439C217.772 57.48 218.056 57.385 218.292 57.1934C218.527 57.0034 218.645 56.7265 218.645 56.3627C218.645 55.7574 218.504 55.1955 218.222 54.6787C217.941 54.1619 217.523 53.7434 216.968 53.4262C216.413 53.1091 215.75 52.9513 214.973 52.9513C214.197 52.9513 213.473 53.1139 212.884 53.4407C212.292 53.7659 211.839 54.2231 211.525 54.8123C211.211 55.3983 211.055 56.0697 211.055 56.8247C211.055 57.5798 211.216 58.2189 211.54 58.7969C211.862 59.3748 212.331 59.8272 212.945 60.154C213.559 60.4792 214.291 60.6434 215.139 60.6434C215.555 60.6434 215.992 60.5871 216.449 60.4744C216.906 60.3633 217.302 60.22 217.633 60.0397C218.206 59.7242 218.491 59.3555 218.491 58.9369C218.491 58.6568 218.407 58.4314 218.235 58.2591C218.064 58.0869 217.846 57.9999 217.576 57.9999L217.578 57.9967ZM213.866 55.0554C214.171 54.8365 214.527 54.7254 214.933 54.7254C215.394 54.7254 215.745 54.8413 215.986 55.0683C216.227 55.2953 216.359 55.5964 216.388 55.9699L215.155 55.9843C214.425 55.9843 213.822 56.0117 213.34 56.0681C213.386 55.6109 213.562 55.2728 213.866 55.0554Z" fill="white"/>
<path d="M227.55 54.7254C227.292 54.1571 226.922 53.7192 226.443 53.4117C225.963 53.1058 225.399 52.9513 224.754 52.9513C223.731 52.9513 222.949 53.3377 222.413 54.112C222.348 53.7659 222.166 53.4938 221.866 53.2942C221.566 53.0946 221.177 52.9948 220.696 52.9948C220.214 52.9948 219.818 53.0849 219.533 53.2652C219.248 53.4471 219.106 53.7063 219.106 54.0428C219.106 54.3117 219.182 54.5338 219.34 54.7045C219.496 54.8783 219.694 54.9637 219.935 54.9637H220.24V61.8573C220.24 62.1921 220.348 62.469 220.565 62.688C220.782 62.9069 221.061 63.018 221.404 63.018C221.747 63.018 222.035 62.9102 222.247 62.696C222.46 62.4819 222.566 62.2018 222.566 61.8589V61.4242C222.566 61.0507 222.552 60.5726 222.525 59.985C223.051 60.4309 223.697 60.6563 224.464 60.6563C225.166 60.6563 225.778 60.4953 226.3 60.1733C226.821 59.8529 227.225 59.3957 227.512 58.8049C227.797 58.2141 227.939 57.5202 227.939 56.7297C227.939 55.9393 227.812 55.2985 227.552 54.7302L227.55 54.7254ZM225.134 58.1931C224.806 58.565 224.383 58.7518 223.868 58.7518C223.424 58.7518 222.991 58.6117 222.566 58.3332V55.4386C223.008 55.0377 223.483 54.8365 223.992 54.8365C224.501 54.8365 224.874 55.012 225.177 55.3613C225.477 55.7123 225.627 56.1711 225.627 56.7394C225.627 57.3367 225.464 57.8196 225.136 58.1931H225.134Z" fill="white"/>
<path d="M239.293 53.3006C239.081 53.0946 238.8 52.9948 238.449 52.9948C238.098 52.9948 237.826 53.0962 237.604 53.3006C237.382 53.5067 237.272 53.7772 237.272 54.112V57.4671C237.031 57.6554 236.807 57.7987 236.601 57.9017C236.395 58.0048 236.156 58.0563 235.888 58.0563C235.526 58.0563 235.255 57.9533 235.07 57.7488C234.885 57.5427 234.792 57.2884 234.792 56.9809V54.6175C234.792 54.0863 234.623 53.6854 234.287 53.4149C233.95 53.1461 233.51 53.0092 232.963 53.0092C232.416 53.0092 232.016 53.0897 231.724 53.2491C231.432 53.4069 231.287 53.687 231.287 54.0863C231.287 54.3471 231.367 54.5596 231.521 54.7222C231.679 54.8848 231.877 54.9669 232.118 54.9669H232.45V57.3866C232.45 58.2817 232.674 58.9594 233.121 59.4199C233.569 59.8819 234.209 60.1121 235.038 60.1121C235.528 60.1121 235.96 60.0252 236.333 59.8529C236.706 59.6807 237.047 59.3941 237.35 58.9932V59.7193C237.35 60.2039 237.204 60.5677 236.909 60.8108C236.612 61.0523 236.266 61.1747 235.87 61.1747C235.545 61.1747 235.299 61.1489 235.13 61.0974C234.958 61.0459 234.708 60.9235 234.374 60.7271C234.134 60.6064 233.933 60.5468 233.765 60.5468C233.48 60.5468 233.253 60.6353 233.086 60.8124C232.918 60.9895 232.837 61.2214 232.837 61.5095C232.837 61.7349 232.901 61.9313 233.025 62.1052C233.15 62.2774 233.336 62.4288 233.585 62.5592C233.87 62.7073 234.202 62.8248 234.577 62.9101C234.95 62.9939 235.323 63.0357 235.692 63.0357C236.846 63.0357 237.789 62.7395 238.516 62.147C239.247 61.5562 239.612 60.674 239.612 59.4988V54.1169C239.612 53.782 239.505 53.5115 239.293 53.3055V53.3006Z" fill="white"/>
<path d="M248.35 54.7962C248.01 54.2086 247.53 53.7546 246.916 53.4327C246.302 53.1123 245.608 52.9513 244.833 52.9513C244.058 52.9513 243.323 53.1123 242.714 53.4327C242.104 53.7546 241.632 54.207 241.301 54.7898C240.967 55.3726 240.803 56.0504 240.803 56.8231C240.803 57.5959 240.975 58.2447 241.323 58.8226C241.669 59.4006 242.146 59.8481 242.757 60.1653C243.366 60.4808 244.063 60.6402 244.846 60.6402C245.629 60.6402 246.315 60.4808 246.924 60.1653C247.535 59.8481 248.01 59.4006 248.35 58.8226C248.693 58.2447 248.862 57.5782 248.862 56.8231C248.862 56.0681 248.691 55.3839 248.35 54.7962ZM246.058 58.1513C245.73 58.4861 245.312 58.6536 244.805 58.6536C244.297 58.6536 243.911 58.4749 243.592 58.1159C243.275 57.7585 243.116 57.2948 243.116 56.7249C243.116 56.2017 243.28 55.7735 243.613 55.4386C243.945 55.1021 244.369 54.9363 244.887 54.9363C245.367 54.9363 245.765 55.1166 246.079 55.4804C246.393 55.8459 246.549 56.3063 246.549 56.865C246.549 57.3882 246.387 57.8164 246.058 58.1513Z" fill="white"/>
<path d="M258.467 58.8918C258.314 58.726 258.129 58.6407 257.906 58.6407H257.866L257.533 58.6552V54.1684C257.533 53.8142 257.428 53.5293 257.215 53.3151C257.003 53.101 256.721 52.9948 256.37 52.9948C255.991 52.9948 255.702 53.0962 255.498 53.3007C255.294 53.5067 255.193 53.7949 255.193 54.1684V58.0112C254.686 58.3944 254.233 58.5844 253.838 58.5844C253.477 58.5844 253.195 58.4926 252.992 58.3123C252.79 58.1304 252.689 57.8679 252.689 57.5218V54.6143C252.689 54.0943 252.528 53.6919 252.205 53.4117C251.879 53.1316 251.423 52.9932 250.833 52.9932C250.335 52.9932 249.94 53.0865 249.648 53.2781C249.358 53.4697 249.213 53.7337 249.213 54.0686C249.213 54.331 249.289 54.5451 249.447 54.7109C249.603 54.88 249.801 54.9621 250.042 54.9621H250.347V57.913C250.347 58.8081 250.57 59.4859 251.018 59.9463C251.466 60.4084 252.118 60.6386 252.978 60.6386C253.485 60.6386 253.932 60.5291 254.321 60.3086C254.708 60.0912 255.051 59.7531 255.346 59.2959C255.456 60.1733 256.048 60.6096 257.12 60.6096C257.627 60.6096 258.016 60.5178 258.289 60.3295C258.563 60.1427 258.697 59.8739 258.697 59.5197C258.697 59.267 258.622 59.0577 258.469 58.8886L258.467 58.8918Z" fill="white"/>
<path d="M264.596 53.1606C264.41 53.0205 264.166 52.9513 263.861 52.9513C263.493 52.9513 263.145 53.1026 262.823 53.4053C262.501 53.7079 262.182 54.1813 261.869 54.8252V54.4195C261.869 53.98 261.726 53.6339 261.439 53.3779C261.153 53.1203 260.77 52.9932 260.289 52.9932C259.807 52.9932 259.434 53.0849 259.168 53.2717C258.9 53.46 258.766 53.7192 258.766 54.0541C258.766 54.3165 258.842 54.5322 259 54.7045C259.156 54.8783 259.351 54.9637 259.581 54.9637H259.858V59.4666C259.868 59.8304 259.976 60.117 260.185 60.3263C260.392 60.5372 260.676 60.6418 261.037 60.6418C261.397 60.6418 261.667 60.5339 261.876 60.3198C262.083 60.1057 262.191 59.8224 262.201 59.4682V55.8475L264.029 55.218C264.333 55.115 264.569 54.9572 264.735 54.7479C264.899 54.5387 264.984 54.294 264.984 54.0154C264.984 53.6613 264.855 53.3763 264.596 53.1622V53.1606Z" fill="white"/>
<path d="M276.145 54.719C275.886 54.1555 275.519 53.7209 275.044 53.4118C274.569 53.1059 274.012 52.9513 273.376 52.9513C272.451 52.9513 271.714 53.2717 271.159 53.914V51.6087C271.159 51.0887 271.004 50.6894 270.693 50.4125C270.384 50.1372 269.934 50.0004 269.344 50.0004C268.847 50.0004 268.467 50.0889 268.209 50.266C267.949 50.4431 267.821 50.7055 267.821 51.0484C267.821 51.3108 267.898 51.5266 268.056 51.6988C268.212 51.8727 268.41 51.958 268.65 51.958H268.818V59.4795C268.818 59.8433 268.92 60.1283 269.123 60.3311C269.325 60.5372 269.571 60.6386 269.856 60.6386C270.115 60.6386 270.327 60.5855 270.493 60.4776C270.66 60.3714 270.784 60.2055 270.866 59.9818L270.922 59.7998C271.483 60.3681 272.172 60.6531 272.985 60.6531C273.704 60.6531 274.333 60.4937 274.867 60.1782C275.403 59.861 275.813 59.4038 276.1 58.8065C276.385 58.2093 276.527 57.5122 276.527 56.7088C276.527 55.9055 276.398 55.2808 276.14 54.7158L276.145 54.719ZM273.722 58.2077C273.389 58.5715 272.964 58.7518 272.448 58.7518C272.024 58.7518 271.593 58.6117 271.159 58.3332V55.4386C271.601 55.0378 272.087 54.8365 272.612 54.8365C273.092 54.8365 273.481 55.0168 273.775 55.3742C274.071 55.7332 274.218 56.2065 274.218 56.7925C274.218 57.3786 274.051 57.8406 273.72 58.206L273.722 58.2077Z" fill="white"/>
<path d="M285.216 54.7962C284.873 54.2086 284.396 53.7546 283.782 53.4327C283.168 53.1123 282.473 52.9513 281.698 52.9513C280.923 52.9513 280.189 53.1123 279.58 53.4327C278.969 53.7546 278.499 54.207 278.165 54.7898C277.833 55.3726 277.668 56.0504 277.668 56.8231C277.668 57.5959 277.841 58.2447 278.188 58.8226C278.535 59.4006 279.012 59.8481 279.621 60.1653C280.232 60.4808 280.929 60.6402 281.712 60.6402C282.495 60.6402 283.181 60.4808 283.79 60.1653C284.399 59.8481 284.875 59.4006 285.216 58.8226C285.559 58.2447 285.728 57.5782 285.728 56.8231C285.728 56.0681 285.557 55.3839 285.216 54.7962ZM282.924 58.1513C282.596 58.4861 282.178 58.6536 281.669 58.6536C281.16 58.6536 280.776 58.4749 280.459 58.1159C280.14 57.7585 279.98 57.2948 279.98 56.7249C279.98 56.2017 280.148 55.7735 280.481 55.4386C280.813 55.1021 281.237 54.9363 281.755 54.9363C282.234 54.9363 282.632 55.1166 282.946 55.4804C283.259 55.8459 283.417 56.3063 283.417 56.865C283.417 57.3882 283.253 57.8164 282.926 58.1513H282.924Z" fill="white"/>
<path d="M294.163 54.7962C293.82 54.2086 293.343 53.7546 292.729 53.4327C292.115 53.1123 291.42 52.9513 290.645 52.9513C289.87 52.9513 289.136 53.1123 288.525 53.4327C287.916 53.7546 287.445 54.207 287.112 54.7898C286.78 55.3726 286.615 56.0504 286.615 56.8231C286.615 57.5959 286.788 58.2447 287.134 58.8226C287.48 59.4006 287.959 59.8481 288.568 60.1653C289.177 60.4808 289.874 60.6402 290.659 60.6402C291.444 60.6402 292.126 60.4808 292.737 60.1653C293.346 59.8481 293.822 59.4006 294.163 58.8226C294.503 58.2447 294.675 57.5782 294.675 56.8231C294.675 56.0681 294.503 55.3839 294.163 54.7962ZM291.869 58.1513C291.543 58.4861 291.123 58.6536 290.616 58.6536C290.109 58.6536 289.723 58.4749 289.404 58.1159C289.086 57.7585 288.927 57.2948 288.927 56.7249C288.927 56.2017 289.094 55.7735 289.425 55.4386C289.758 55.1021 290.182 54.9363 290.699 54.9363C291.179 54.9363 291.576 55.1166 291.89 55.4804C292.204 55.8459 292.362 56.3063 292.362 56.865C292.362 57.3882 292.198 57.8164 291.869 58.1513Z" fill="white"/>
<path d="M300.893 58.6472C300.735 58.4749 300.523 58.388 300.255 58.388C300.164 58.388 300.043 58.417 299.895 58.4717C299.848 58.491 299.756 58.5281 299.617 58.5844C299.478 58.6391 299.332 58.6681 299.175 58.6681C298.963 58.6681 298.809 58.6182 298.71 58.5216C298.612 58.4234 298.566 58.2689 298.566 58.0547V54.8526H300.061C300.319 54.8526 300.529 54.7673 300.691 54.5935C300.852 54.4212 300.933 54.2006 300.933 53.9286C300.933 53.6565 300.852 53.452 300.691 53.2782C300.529 53.1059 300.319 53.019 300.061 53.019H298.566V51.8582C298.566 51.533 298.459 51.2754 298.247 51.0903C298.035 50.9036 297.772 50.8102 297.458 50.8102C297.144 50.8102 296.877 50.9036 296.654 51.0903C296.432 51.2771 296.322 51.533 296.322 51.8582V53.019H295.782C295.533 53.019 295.326 53.1075 295.158 53.2846C294.991 53.4617 294.909 53.6758 294.909 53.927C294.909 54.1781 294.992 54.4067 295.158 54.5838C295.324 54.7609 295.531 54.8494 295.782 54.8494H296.252V58.2061C296.252 59.1092 296.498 59.7419 296.987 60.0993C297.477 60.4583 298.062 60.637 298.745 60.637C299.225 60.637 299.702 60.563 300.171 60.4132C300.807 60.2168 301.128 59.8482 301.128 59.3072C301.128 59.0384 301.048 58.8162 300.893 58.6424V58.6472Z" fill="white"/>
<path d="M309.492 53.3006C309.28 53.0946 308.998 52.9948 308.647 52.9948C308.296 52.9948 308.024 53.0962 307.803 53.3006C307.582 53.5067 307.472 53.7772 307.472 54.112V57.4671C307.231 57.6554 307.006 57.7987 306.8 57.9017C306.591 58.0048 306.355 58.0563 306.086 58.0563C305.725 58.0563 305.454 57.9533 305.269 57.7488C305.083 57.5427 304.992 57.2884 304.992 56.9809V54.6175C304.992 54.0863 304.823 53.6854 304.486 53.4149C304.15 53.1461 303.708 53.0092 303.162 53.0092C302.617 53.0092 302.214 53.0897 301.923 53.2491C301.631 53.4069 301.486 53.687 301.486 54.0863C301.486 54.3471 301.566 54.5596 301.721 54.7222C301.877 54.8848 302.076 54.9669 302.316 54.9669H302.649V57.3866C302.649 58.2817 302.872 58.9594 303.32 59.4199C303.769 59.8819 304.406 60.1121 305.237 60.1121C305.727 60.1121 306.159 60.0252 306.532 59.8529C306.906 59.6807 307.245 59.3941 307.55 58.9932V59.7193C307.55 60.2039 307.403 60.5677 307.106 60.8108C306.811 61.0523 306.465 61.1747 306.068 61.1747C305.746 61.1747 305.497 61.1489 305.328 61.0974C305.159 61.0459 304.906 60.9235 304.574 60.7271C304.333 60.6064 304.131 60.5468 303.965 60.5468C303.679 60.5468 303.453 60.6353 303.285 60.8124C303.118 60.9895 303.036 61.2214 303.036 61.5095C303.036 61.7349 303.099 61.9313 303.223 62.1052C303.349 62.2774 303.536 62.4288 303.784 62.5592C304.07 62.7073 304.4 62.8248 304.775 62.9101C305.15 62.9939 305.521 63.0357 305.891 63.0357C307.046 63.0357 307.987 62.7395 308.716 62.147C309.446 61.5562 309.808 60.674 309.808 59.4988V54.1169C309.808 53.782 309.703 53.5115 309.491 53.3055L309.492 53.3006Z" fill="white"/>
<path d="M321.063 57.9758C320.873 57.8035 320.635 57.7166 320.348 57.7166C320.219 57.7166 320.098 57.744 319.982 57.7939C319.865 57.8454 319.742 57.9307 319.615 58.0531C319.135 58.4813 318.636 58.6954 318.119 58.6954C317.556 58.6954 317.106 58.5248 316.77 58.1851C316.433 57.8454 316.264 57.3898 316.264 56.8215C316.264 56.2532 316.433 55.7654 316.77 55.4177C317.106 55.0683 317.556 54.8928 318.119 54.8928C318.36 54.8928 318.594 54.9444 318.825 55.0474C319.055 55.1504 319.301 55.313 319.559 55.5368C319.698 55.6592 319.82 55.7429 319.926 55.7879C320.033 55.8346 320.151 55.8588 320.28 55.8588C320.565 55.8588 320.808 55.767 321.005 55.5867C321.203 55.4048 321.304 55.1649 321.304 54.8655C321.304 54.6884 321.256 54.5113 321.165 54.3342C321.072 54.1571 320.948 54.009 320.792 53.8883C320.017 53.2636 319.12 52.9513 318.104 52.9513C317.275 52.9513 316.545 53.1091 315.916 53.4262C315.288 53.7434 314.803 54.1925 314.463 54.7753C314.121 55.3581 313.952 56.0359 313.952 56.8086C313.952 57.5814 314.122 58.2591 314.463 58.8371C314.803 59.4151 315.286 59.8594 315.91 60.1701C316.535 60.484 317.266 60.6402 318.104 60.6402C318.679 60.6402 319.221 60.5452 319.733 60.3536C320.245 60.1621 320.648 59.9093 320.943 59.5921C321.211 59.2847 321.345 58.9772 321.345 58.6697C321.345 58.3815 321.251 58.1513 321.063 57.9774V57.9758Z" fill="white"/>
<path d="M325.584 58.8725C325.428 58.718 325.233 58.6407 325.004 58.6407H324.921L324.683 58.6552V51.6102C324.673 51.0902 324.514 50.691 324.206 50.4141C323.897 50.1388 323.447 50.002 322.857 50.002C322.377 50.002 322.01 50.0937 321.755 50.274C321.5 50.4559 321.374 50.7151 321.374 51.05C321.374 51.3124 321.454 51.5281 321.608 51.7004C321.766 51.8743 321.964 51.9596 322.205 51.9596H322.343V59.019C322.353 59.5326 322.517 59.9254 322.841 60.2007C323.163 60.4776 323.619 60.6128 324.211 60.6128C324.718 60.6128 325.112 60.5146 325.396 60.3182C325.677 60.1234 325.819 59.8481 325.819 59.4939C325.819 59.2315 325.739 59.0238 325.581 58.8725H325.584Z" fill="white"/>
<path d="M332.801 57.9967C332.662 57.9967 332.541 58.0193 332.439 58.0676C332.337 58.1143 332.19 58.1964 331.997 58.3187C331.737 58.4845 331.491 58.6085 331.257 58.689C331.019 58.7695 330.755 58.8081 330.461 58.8081C329.964 58.8081 329.536 58.7019 329.187 58.4861C328.836 58.272 328.632 57.9372 328.576 57.48H332.662C332.994 57.48 333.278 57.385 333.514 57.1934C333.748 57.0034 333.866 56.7265 333.866 56.3627C333.866 55.7574 333.726 55.1955 333.445 54.6787C333.163 54.1619 332.745 53.7434 332.19 53.4262C331.637 53.1091 330.972 52.9513 330.196 52.9513C329.421 52.9513 328.696 53.1139 328.106 53.4407C327.514 53.7659 327.061 54.2231 326.747 54.8123C326.434 55.3983 326.276 56.0697 326.276 56.8247C326.276 57.5798 326.437 58.2189 326.761 58.7969C327.083 59.3748 327.552 59.8272 328.166 60.154C328.78 60.4792 329.512 60.6434 330.361 60.6434C330.777 60.6434 331.214 60.5871 331.67 60.4744C332.128 60.3633 332.523 60.22 332.855 60.0397C333.428 59.7242 333.715 59.3555 333.715 58.9369C333.715 58.6568 333.629 58.4314 333.458 58.2591C333.286 58.0869 333.067 57.9999 332.799 57.9999L332.801 57.9967ZM329.088 55.0554C329.393 54.8365 329.748 54.7254 330.155 54.7254C330.616 54.7254 330.967 54.8413 331.208 55.0683C331.448 55.2969 331.581 55.5964 331.609 55.9699L330.377 55.9843C329.648 55.9843 329.043 56.0117 328.562 56.0681C328.61 55.6109 328.785 55.2728 329.088 55.0554Z" fill="white"/>
<path d="M342.762 58.8854C342.583 58.7228 342.395 58.6407 342.202 58.6407H342.132L341.869 58.6552V55.8314C341.869 54.88 341.588 54.1636 341.025 53.6774C340.462 53.1944 339.644 52.9513 338.574 52.9513C338.076 52.9513 337.616 52.9883 337.196 53.0624C336.775 53.1364 336.357 53.2572 335.941 53.4262C335.609 53.5566 335.362 53.7063 335.201 53.8738C335.04 54.0428 334.959 54.2569 334.959 54.5161C334.959 54.7962 335.038 55.0345 335.193 55.2357C335.349 55.437 335.581 55.5368 335.887 55.5368C335.989 55.5368 336.08 55.5271 336.163 55.5078C336.247 55.4901 336.357 55.4483 336.496 55.3822C336.635 55.3162 336.73 55.2712 336.788 55.2422C337.091 55.0941 337.368 54.9814 337.617 54.9073C337.866 54.8333 338.129 54.7962 338.407 54.7962C338.749 54.7962 339.022 54.88 339.231 55.0474C339.438 55.2164 339.542 55.4531 339.542 55.759V56.39C339.006 56.184 338.44 56.0826 337.84 56.0826C336.861 56.0826 336.088 56.2886 335.518 56.6975C334.952 57.1081 334.667 57.6538 334.667 58.3348C334.667 59.0609 334.911 59.6276 335.4 60.0333C335.89 60.439 336.509 60.6402 337.257 60.6402C337.737 60.6402 338.185 60.5565 338.601 60.389C339.016 60.22 339.367 59.9882 339.654 59.6887C339.893 60.3053 340.507 60.6112 341.494 60.6112C341.93 60.6112 342.293 60.5162 342.59 60.3246C342.885 60.1347 343.032 59.8658 343.032 59.5229C343.032 59.2605 342.942 59.048 342.762 58.8854ZM339.542 58.4604C338.979 58.7775 338.453 58.9353 337.965 58.9353C337.281 58.9353 336.938 58.6986 336.938 58.2221C336.938 57.9983 337.043 57.8293 337.25 57.7118C337.458 57.5959 337.753 57.5379 338.129 57.5379C338.407 57.5379 338.641 57.5556 338.836 57.5926C339.029 57.6297 339.266 57.7005 339.541 57.8035V58.4604H339.542Z" fill="white"/>
<path d="M352.312 58.8854C352.144 58.7228 351.964 58.6407 351.771 58.6407H351.701L351.398 58.6552V55.3694C351.398 54.6336 351.173 54.046 350.727 53.6081C350.279 53.1686 349.68 52.9513 348.934 52.9513C347.872 52.9513 347 53.423 346.317 54.3632C346.225 53.906 346.035 53.5647 345.749 53.3361C345.464 53.1075 345.048 52.9948 344.504 52.9948C344.014 52.9948 343.628 53.0865 343.347 53.2733C343.065 53.4616 342.925 53.7208 342.925 54.0557C342.925 54.3181 343.001 54.5338 343.153 54.7061C343.306 54.88 343.485 54.9653 343.686 54.9653H343.741L344.046 54.9395V59.4827C344.046 59.8288 344.153 60.1057 344.371 60.3198C344.588 60.5339 344.872 60.6418 345.223 60.6418C345.574 60.6418 345.843 60.5339 346.062 60.3198C346.279 60.1057 346.387 59.8272 346.387 59.4827V55.5819C346.665 55.3758 346.928 55.2293 347.177 55.1408C347.425 55.0522 347.685 55.0071 347.952 55.0071C348.295 55.0071 348.564 55.1086 348.762 55.3082C348.96 55.5078 349.06 55.7751 349.06 56.1115V59.0174C349.06 59.5406 349.22 59.9367 349.537 60.2055C349.856 60.476 350.32 60.6112 350.928 60.6112C351.446 60.6112 351.846 60.513 352.133 60.3166C352.419 60.1218 352.564 59.8417 352.564 59.4794C352.564 59.246 352.479 59.048 352.315 58.8838L352.312 58.8854Z" fill="white"/>
<path d="M36.9938 21.592C36.1549 20.7645 34.97 20.3508 33.4389 20.3508H24.9034C23.5909 20.3508 22.5255 20.7275 21.7042 21.4825C20.8829 22.2376 20.473 23.2406 20.473 24.4915C20.473 25.6345 20.8924 26.5811 21.7313 27.3361C22.5702 28.0912 23.6276 28.4679 24.905 28.4679H29.0643V32.4991C27.7853 33.0513 26.6561 33.4473 25.6705 33.6872C24.6865 33.9271 23.6467 34.0462 22.5526 34.0462C18.8319 34.0462 15.9229 33.0336 13.8273 31.0083C11.7286 28.9831 10.6808 26.1674 10.6808 22.558C10.6808 18.9486 11.6648 16.1425 13.6344 14.1349C15.604 12.129 18.3742 11.126 21.9498 11.126C24.2846 11.126 26.6737 11.8988 29.117 13.4443C29.8825 13.9611 30.5491 14.3378 31.1153 14.5761C31.6798 14.8175 32.254 14.9351 32.8377 14.9351C34.2236 14.9351 35.3368 14.5036 36.1757 13.6375C37.0129 12.773 37.434 11.6959 37.434 10.408C37.434 9.63527 37.2235 8.88022 36.804 8.14289C36.383 7.40716 35.7913 6.76159 35.0242 6.2094C31.4135 3.78005 27.0548 2.56458 21.9482 2.56458C17.6087 2.56458 13.8242 3.38563 10.5962 5.0229C7.3683 6.66017 4.88036 8.98004 3.12924 11.9809C1.37812 14.9834 0.502563 18.5091 0.502563 22.5596C0.502563 26.6101 1.34144 30.1986 3.0192 33.2187C4.69696 36.2373 7.08442 38.5588 10.1864 40.1767C13.2851 41.7979 16.9341 42.6061 21.1285 42.6061C24.0087 42.6061 26.5892 42.3115 28.8698 41.7239C31.1488 41.1346 33.1997 40.2331 35.0242 39.0176C36.1198 38.2449 36.93 37.4979 37.4595 36.7798C37.9874 36.0618 38.2521 35.0411 38.2521 33.7146V25.1531C38.2521 23.6076 37.8327 22.4195 36.9938 21.592Z" fill="white"/>
<path d="M72.5553 19.3011C71.2045 16.9813 69.3178 15.1862 66.8921 13.916C64.4663 12.6458 61.7232 12.0099 58.658 12.0099C55.5927 12.0099 52.6949 12.6458 50.2867 13.916C47.8801 15.1862 46.019 16.9716 44.7064 19.2722C43.3923 21.5743 42.7368 24.2532 42.7368 27.3088C42.7368 30.3644 43.4194 32.9225 44.7878 35.2054C46.1545 37.4882 48.0428 39.2559 50.4494 40.5084C52.8576 41.7609 55.6103 42.3855 58.7122 42.3855C61.8141 42.3855 64.511 41.7609 66.9176 40.5084C69.3258 39.2559 71.2045 37.4898 72.5537 35.2054C73.9029 32.9225 74.5759 30.2903 74.5759 27.3088C74.5759 24.3273 73.9013 21.621 72.5537 19.3011H72.5553ZM63.4999 32.5555C62.2049 33.8804 60.5542 34.5437 58.5479 34.5437C56.5416 34.5437 55.0202 33.8337 53.7603 32.417C52.5019 31.0003 51.8736 29.1666 51.8736 26.9208C51.8736 24.8601 52.5291 23.1649 53.8432 21.8416C55.1557 20.515 56.8319 19.8533 58.8749 19.8533C60.7711 19.8533 62.3404 20.5714 63.5796 22.0074C64.8204 23.4434 65.4392 25.2658 65.4392 27.4746C65.4392 29.5369 64.7917 31.2305 63.4983 32.5555H63.4999Z" fill="white"/>
<path d="M124.706 55.3711C124.492 55.1602 124.193 55.0555 123.802 55.0555H121.636C121.304 55.0555 121.033 55.1505 120.826 55.3421C120.617 55.5337 120.513 55.788 120.513 56.1052C120.513 56.395 120.619 56.6364 120.832 56.828C121.044 57.0196 121.312 57.1146 121.636 57.1146H122.692V58.1369C122.366 58.2769 122.081 58.3784 121.831 58.4379C121.582 58.5007 121.319 58.5297 121.04 58.5297C120.095 58.5297 119.359 58.2721 118.828 57.7585C118.295 57.245 118.029 56.5286 118.029 55.6158C118.029 54.703 118.277 53.9882 118.778 53.4778C119.279 52.9691 119.981 52.7147 120.886 52.7147C121.48 52.7147 122.084 52.9111 122.706 53.3023C122.899 53.4327 123.068 53.5293 123.212 53.5889C123.355 53.6517 123.502 53.6807 123.649 53.6807C124.001 53.6807 124.283 53.5712 124.496 53.3506C124.708 53.1301 124.815 52.858 124.815 52.5312C124.815 52.3348 124.762 52.1432 124.655 51.9581C124.548 51.7697 124.398 51.6071 124.204 51.4671C123.288 50.8505 122.183 50.543 120.886 50.543C119.786 50.543 118.826 50.7506 118.008 51.166C117.188 51.583 116.557 52.1706 116.113 52.9321C115.67 53.6935 115.447 54.587 115.447 55.6158C115.447 56.6445 115.66 57.5541 116.084 58.3188C116.51 59.0851 117.116 59.6743 117.904 60.0849C118.69 60.4954 119.615 60.7015 120.679 60.7015C121.41 60.7015 122.063 60.6274 122.642 60.4761C123.22 60.328 123.741 60.0994 124.204 59.7903C124.481 59.5938 124.687 59.4039 124.821 59.222C124.955 59.0416 125.023 58.7808 125.023 58.4444V56.2726C125.023 55.8814 124.917 55.5804 124.705 55.3695L124.706 55.3711Z" fill="white"/>
<path d="M112.247 13.1706C111.207 12.4719 109.721 12.1209 107.788 12.1209C103.849 12.1209 101.552 13.5747 100.895 16.4838C100.056 15.0107 98.9081 13.8983 97.4489 13.1432C95.9896 12.3898 94.2943 12.0115 92.3614 12.0115C89.7363 12.0115 87.419 12.612 85.4127 13.8065C83.4064 15.0043 81.8483 16.6786 80.7367 18.8326C79.6235 20.9883 79.0669 23.4627 79.0669 26.2607C79.0669 29.0587 79.5948 31.4704 80.6522 33.6051C81.7111 35.7414 83.2246 37.39 85.1942 38.5491C87.1638 39.7082 89.4428 40.2894 92.0328 40.2894C95.5702 40.2894 98.4153 39.0933 100.568 36.6993V37.749C100.568 39.9578 99.9113 41.6337 98.5987 42.7751C97.2846 43.9165 95.6053 44.4864 93.5655 44.4864C91.9595 44.4864 90.3375 44.0244 88.6965 43.1051C88.4413 42.9957 88.0761 42.8105 87.6008 42.5529C87.1272 42.2954 86.7061 42.1038 86.3425 41.9734C85.9789 41.843 85.577 41.7818 85.1384 41.7818C84.0444 41.7818 83.1417 42.1408 82.4304 42.8588C81.7191 43.5768 81.3619 44.488 81.3619 45.5924C81.3619 47.4342 82.4575 48.8879 84.6456 49.9569C85.8497 50.5445 87.2452 51.0065 88.832 51.3366C90.4173 51.6682 91.9946 51.834 93.5639 51.834C96.6626 51.834 99.4089 51.2271 101.798 50.0132C104.187 48.7961 106.066 46.9753 107.432 44.546C108.801 42.115 109.483 39.1319 109.483 35.5982V19.9129L110.415 19.9692H110.633C111.471 19.9692 112.211 19.6102 112.849 18.8922C113.486 18.1742 113.807 17.2807 113.807 16.2133C113.807 14.8884 113.286 13.8757 112.247 13.177V13.1706ZM100.238 30.7878C99.326 31.4865 98.4504 32.0032 97.6131 32.3349C96.7743 32.6649 95.8971 32.8323 94.9865 32.8323C92.835 32.8323 91.1653 32.2512 89.9803 31.092C88.7953 29.9329 88.2021 28.2844 88.2021 26.148C88.2021 24.1598 88.8033 22.5515 90.0058 21.3151C91.2099 20.0819 92.7968 19.4653 94.7664 19.4653C96.6275 19.4653 98.4504 20.1479 100.238 21.5083V30.7862V30.7878Z" fill="white"/>
<path d="M138.481 12.839C137.75 12.2868 136.784 12.0099 135.58 12.0099C134.12 12.0099 132.754 12.6104 131.478 13.8049C130.2 15.0027 128.942 16.8718 127.703 19.4106V17.8104C127.703 16.0797 127.137 14.7081 126.007 13.6955C124.877 12.6828 123.363 12.1773 121.467 12.1773C119.571 12.1773 118.092 12.5444 117.035 13.2817C115.976 14.0174 115.448 15.0494 115.448 16.3743C115.448 17.4047 115.758 18.2611 116.378 18.9421C116.998 19.6231 117.764 19.9628 118.676 19.9628H119.772V37.7474C119.807 39.1834 120.236 40.3152 121.057 41.1443C121.877 41.9718 122.998 42.3855 124.422 42.3855C125.846 42.3855 126.91 41.9621 127.731 41.1153C128.551 40.2701 128.98 39.1464 129.017 37.7474V23.4434L136.238 20.9577C137.442 20.5536 138.372 19.937 139.028 19.1079C139.685 18.2789 140.012 17.3129 140.012 16.2085C140.012 14.8095 139.501 13.6874 138.481 12.8406V12.839Z" fill="white"/>
<path d="M166.765 31.9469C166.218 31.9469 165.743 32.0403 165.341 32.2239C164.94 32.409 164.357 32.739 163.59 33.2172C162.567 33.8788 161.593 34.3682 160.663 34.6806C159.733 34.9945 158.684 35.149 157.517 35.149C155.547 35.149 153.869 34.7256 152.485 33.8788C151.097 33.0336 150.295 31.7071 150.077 29.9024H166.216C167.529 29.9024 168.65 29.5257 169.581 28.7706C170.511 28.0172 170.975 26.9208 170.975 25.4848C170.975 23.0925 170.419 20.874 169.307 18.8295C168.194 16.7865 166.543 15.1396 164.355 13.8871C162.167 12.6346 159.542 12.0083 156.477 12.0083C153.411 12.0083 150.55 12.6539 148.217 13.9402C145.882 15.2313 144.094 17.0328 142.855 19.3543C141.613 21.6725 140.994 24.3241 140.994 27.3072C140.994 30.2904 141.632 32.8115 142.908 35.0927C144.185 37.3771 146.035 39.1609 148.461 40.4505C150.887 41.74 153.777 42.3823 157.134 42.3823C158.775 42.3823 160.497 42.1618 162.303 41.7207C164.108 41.2796 165.668 40.708 166.982 40.0093C169.242 38.7568 170.374 37.3015 170.374 35.6449C170.374 34.5421 170.038 33.6486 169.363 32.966C168.687 32.285 167.821 31.9453 166.763 31.9453L166.765 31.9469ZM152.102 20.3218C153.306 19.4573 154.71 19.0243 156.316 19.0243C158.139 19.0243 159.526 19.475 160.473 20.3766C161.421 21.2797 161.95 22.4662 162.06 23.9377L157.19 23.994C154.309 23.994 151.919 24.1051 150.024 24.3257C150.206 22.521 150.898 21.1864 152.102 20.3202V20.3218Z" fill="white"/>
<path d="M200.081 31.9469C199.534 31.9469 199.06 32.0403 198.658 32.2239C198.256 32.409 197.674 32.739 196.907 33.2172C195.886 33.8788 194.909 34.3682 193.979 34.6806C193.049 34.9945 192 35.149 190.832 35.149C188.863 35.149 187.185 34.7256 185.801 33.8788C184.413 33.0336 183.613 31.7071 183.393 29.9024H199.532C200.846 29.9024 201.968 29.5257 202.897 28.7706C203.827 28.0172 204.293 26.9208 204.293 25.4848C204.293 23.0925 203.735 20.874 202.623 18.8295C201.51 16.7865 199.861 15.1396 197.673 13.8871C195.483 12.6346 192.858 12.0083 189.793 12.0083C186.727 12.0083 183.866 12.6539 181.533 13.9402C179.198 15.2313 177.41 17.0328 176.171 19.3543C174.93 21.6725 174.31 24.3241 174.31 27.3072C174.31 30.2904 174.948 32.8115 176.225 35.0927C177.501 37.3771 179.351 39.1609 181.779 40.4505C184.203 41.74 187.093 42.3823 190.45 42.3823C192.091 42.3823 193.815 42.1618 195.619 41.7207C197.424 41.2796 198.984 40.708 200.298 40.0093C202.559 38.7568 203.69 37.3015 203.69 35.6449C203.69 34.5421 203.353 33.6486 202.679 32.966C202.003 32.285 201.137 31.9453 200.079 31.9453L200.081 31.9469ZM185.418 20.3218C186.622 19.4573 188.026 19.0243 189.632 19.0243C191.456 19.0243 192.842 19.475 193.789 20.3766C194.737 21.2797 195.266 22.4662 195.376 23.9377L190.507 23.994C187.625 23.994 185.236 24.1051 183.34 24.3257C183.522 22.521 184.214 21.1864 185.418 20.3202V20.3218Z" fill="white"/>
<path d="M243.192 35.4549C242.535 34.8093 241.824 34.4874 241.058 34.4874H240.784L239.578 34.5437V21.5647C239.578 18.6572 238.693 16.3357 236.926 14.6067C235.157 12.876 232.796 12.0099 229.84 12.0099C225.646 12.0099 222.2 13.8693 219.501 17.5882C219.136 15.7835 218.388 14.4312 217.257 13.5296C216.126 12.6265 214.485 12.1773 212.334 12.1773C210.399 12.1773 208.878 12.5444 207.766 13.2817C206.653 14.0174 206.097 15.0494 206.097 16.3743C206.097 17.4047 206.398 18.2611 206.999 18.9421C207.602 19.6231 208.302 19.9628 209.106 19.9628H209.324L210.529 19.8533V37.8021C210.529 39.1641 210.958 40.2685 211.816 41.1153C212.672 41.9621 213.793 42.3855 215.179 42.3855C216.565 42.3855 217.632 41.9621 218.49 41.1153C219.346 40.2701 219.775 39.1641 219.775 37.8021V22.3922C220.869 21.584 221.909 21.0044 222.893 20.6535C223.877 20.3041 224.9 20.1302 225.957 20.1302C227.306 20.1302 228.372 20.5263 229.156 21.3167C229.941 22.1088 230.333 23.1665 230.333 24.4931V35.9813C230.333 38.0436 230.963 39.6068 232.221 40.6758C233.48 41.7448 235.312 42.2777 237.719 42.2777C239.762 42.2777 241.347 41.8897 242.479 41.1169C243.61 40.3442 244.175 39.2398 244.175 37.8038C244.175 36.8845 243.846 36.1005 243.191 35.4565L243.192 35.4549Z" fill="white"/>
<path d="M276.511 18.9969C275.489 16.7688 274.039 15.0478 272.162 13.8323C270.284 12.6168 268.086 12.0099 265.569 12.0099C261.922 12.0099 259.005 13.2801 256.815 15.8205V6.70688C256.815 4.6462 256.204 3.07333 254.983 1.98664C253.761 0.901569 251.983 0.357422 249.65 0.357422C247.68 0.357422 246.183 0.708381 245.163 1.40708C244.143 2.10578 243.631 3.13772 243.631 4.49809C243.631 5.52843 243.942 6.3849 244.561 7.0675C245.179 7.74848 245.964 8.08817 246.915 8.08817H247.57V37.8005C247.57 39.2366 247.97 40.3603 248.774 41.1684C249.576 41.9766 250.543 42.3839 251.674 42.3839C252.694 42.3839 253.535 42.1714 254.19 41.748C254.846 41.3246 255.338 40.671 255.667 39.7888L255.886 39.0691C258.11 41.3166 260.828 42.4387 264.037 42.4387C266.882 42.4387 269.362 41.814 271.478 40.5599C273.593 39.309 275.216 37.5059 276.347 35.1474C277.478 32.7921 278.042 30.0311 278.042 26.8629C278.042 23.6946 277.532 21.2218 276.511 18.9953V18.9969ZM266.936 32.776C265.624 34.2121 263.946 34.9301 261.904 34.9301C260.225 34.9301 258.53 34.3779 256.815 33.2735V21.8416C258.566 20.2574 260.482 19.4654 262.56 19.4654C264.456 19.4654 265.989 20.1753 267.155 21.592C268.324 23.0104 268.906 24.8778 268.906 27.1977C268.906 29.5176 268.25 31.3416 266.936 32.776Z" fill="white"/>
<path d="M370.77 34.5147C370.15 33.8337 369.311 33.494 368.254 33.494C367.889 33.494 367.415 33.6035 366.831 33.8256C366.648 33.8997 366.284 34.0462 365.736 34.2668C365.189 34.4873 364.605 34.5968 363.984 34.5968C363.146 34.5968 362.536 34.4052 362.152 34.0172C361.769 33.6308 361.578 33.0142 361.578 32.1674V19.52H367.487C368.507 19.52 369.338 19.1804 369.976 18.4994C370.614 17.8168 370.933 16.9442 370.933 15.8752C370.933 14.8063 370.614 13.9884 369.976 13.3058C369.337 12.6248 368.507 12.2851 367.487 12.2851H361.578V7.70014C361.578 6.41222 361.158 5.39959 360.32 4.66386C359.481 3.92814 358.442 3.55786 357.202 3.55786C355.961 3.55786 354.904 3.92653 354.028 4.66386C353.152 5.39959 352.714 6.41222 352.714 7.70014V12.2851H350.58C349.596 12.2851 348.775 12.6361 348.118 13.3348C347.46 14.0335 347.134 14.8819 347.134 15.8752C347.134 16.8685 347.46 17.7701 348.118 18.4704C348.773 19.1707 349.594 19.52 350.58 19.52H352.44V32.7744C352.44 36.3467 353.406 38.8405 355.339 40.2572C357.272 41.6755 359.589 42.3839 362.288 42.3839C364.184 42.3839 366.063 42.0893 367.922 41.5017C370.439 40.7289 371.697 39.2736 371.697 37.1372C371.697 36.0715 371.386 35.1957 370.767 34.5131L370.77 34.5147Z" fill="white"/>
<path d="M404.244 13.3911C403.405 12.5814 402.294 12.1757 400.906 12.1757C399.519 12.1757 398.446 12.5797 397.57 13.3911C396.696 14.2009 396.256 15.2683 396.256 16.5948V29.8492C395.308 30.5849 394.423 31.1548 393.604 31.5605C392.782 31.9646 391.843 32.1674 390.786 32.1674C389.361 32.1674 388.286 31.7633 387.558 30.952C386.827 30.1438 386.462 29.1295 386.462 27.9141V18.5815C386.462 16.4821 385.795 14.8996 384.465 13.8322C383.134 12.7633 381.39 12.2304 379.239 12.2304C377.088 12.2304 375.491 12.5443 374.343 13.1706C373.193 13.7952 372.619 14.9012 372.619 16.4838C372.619 17.5141 372.93 18.3545 373.549 18.9968C374.169 19.6408 374.952 19.9628 375.903 19.9628H377.217V29.5175C377.217 33.0529 378.1 35.7301 379.869 37.5526C381.638 39.375 384.164 40.2878 387.446 40.2878C389.379 40.2878 391.085 39.9481 392.562 39.2655C394.039 38.5845 395.38 37.4527 396.583 35.8686V38.7407C396.583 40.6548 395.999 42.0909 394.832 43.0472C393.664 44.0034 392.296 44.4848 390.73 44.4848C389.452 44.4848 388.476 44.3818 387.802 44.1805C387.125 43.9777 386.132 43.4915 384.821 42.7187C383.872 42.2406 383.07 42.0007 382.414 42.0007C381.282 42.0007 380.389 42.3501 379.732 43.0488C379.076 43.7475 378.748 44.6699 378.748 45.8097C378.748 46.6936 378.995 47.476 379.488 48.157C379.981 48.838 380.717 49.4352 381.703 49.9536C382.834 50.5413 384.138 51.0033 385.615 51.3333C387.092 51.665 388.559 51.8308 390.02 51.8308C394.578 51.8308 398.299 50.662 401.179 48.3244C404.059 45.9852 405.503 42.4982 405.503 37.8584V16.5948C405.503 15.2683 405.082 14.2025 404.244 13.3911Z" fill="white"/>
<path d="M302.308 40.9672C301.485 40.9415 300.684 40.8288 299.914 40.6372C300.7 40.8079 301.501 40.9189 302.308 40.9672Z" fill="white"/>
<path d="M299.914 40.6372C300.7 40.8079 301.501 40.9189 302.308 40.9672C301.485 40.9415 300.684 40.8288 299.914 40.6372Z" fill="white"/>
<path d="M314.406 31.6024C314.406 31.6523 314.406 31.7022 314.404 31.7521C314.404 31.7924 314.404 31.8342 314.403 31.8761C314.384 32.8855 314.255 33.8885 314.017 34.8528C314.017 34.8528 314.011 34.8785 313.998 34.9301C313.959 35.083 313.923 35.2166 313.889 35.339C313.857 35.4517 313.816 35.5853 313.768 35.735C313.629 36.1568 313.422 36.7219 313.13 37.3481C312.958 37.7168 312.759 38.1096 312.526 38.5073C312.483 38.5829 312.436 38.6602 312.389 38.7375L312.357 38.7858C312.33 38.8309 312.302 38.8743 312.277 38.9162C312.223 39.0015 312.168 39.0868 312.109 39.1722C312.06 39.2462 312.009 39.3203 311.958 39.3943V39.4491L311.899 39.4764C311.728 39.7147 311.564 39.9304 311.4 40.1349L311.347 40.1977C311.326 40.2218 311.307 40.246 311.287 40.2717C310.953 40.671 310.586 41.0638 310.197 41.4357L310.185 41.4469C307.062 44.6378 302.509 45.3075 299.239 45.3075C296.445 45.3075 294.168 44.8213 293.737 44.7231C293.697 44.7134 293.67 44.707 293.654 44.7038C291.102 44.158 288.787 43.1051 286.774 41.5725C284.683 39.9852 283.031 37.9567 281.859 35.5499C279.632 30.9794 279.435 25.5862 281.299 20.3685C282.433 17.1986 284.246 14.3217 286.586 11.9245L286.594 11.9181C287.535 10.9522 288.563 10.0635 289.669 9.26821C290.305 8.80456 290.967 8.3731 291.653 7.97546C291.7 7.94648 291.75 7.91911 291.795 7.89335L291.935 7.81286C292.07 7.73558 292.212 7.65831 292.388 7.56493L292.415 7.53595L292.431 7.51985L292.45 7.50859L292.592 7.42809L292.94 7.22363L292.949 7.22846L293.062 7.28159C293.062 7.28159 293.069 7.28642 293.074 7.28803C293.085 7.29286 293.098 7.2993 293.112 7.30574L293.126 7.31379H293.131L293.136 7.31701L293.208 7.35242L293.271 7.38301C293.461 7.47317 293.659 7.56976 293.852 7.66636H293.857L293.86 7.67119C294.04 7.75812 294.19 7.83379 294.332 7.90784H294.334L294.34 7.91106C294.496 7.99156 294.646 8.06722 294.794 8.14772C294.804 8.15255 294.814 8.15899 294.825 8.16543C295.062 8.28939 295.311 8.42462 295.589 8.57917C295.75 8.66772 295.911 8.75948 296.072 8.85285L296.081 8.85929L296.093 8.86573C296.12 8.87861 296.145 8.89471 296.172 8.91081L296.182 8.91725L296.193 8.92369C296.319 8.99453 296.451 9.0718 296.597 9.15874C296.695 9.21669 296.793 9.27465 296.888 9.33261C297.042 9.42437 297.199 9.52257 297.408 9.65298C297.423 9.66103 297.435 9.66907 297.448 9.67712C297.378 9.71093 297.302 9.74474 297.223 9.78338C297.174 9.80753 297.124 9.83167 297.073 9.85743C296.818 9.9814 296.528 10.1327 296.209 10.305C296.171 10.3259 296.133 10.3452 296.093 10.3678C296.032 10.4032 295.97 10.437 295.908 10.4724C295.836 10.5127 295.759 10.5545 295.684 10.5996C295.491 10.7091 295.294 10.8282 295.088 10.9554C295.011 11.0005 294.936 11.0488 294.86 11.0971C294.817 11.1244 294.775 11.1534 294.731 11.1808C294.646 11.2323 294.563 11.287 294.477 11.3434C294.394 11.3997 294.308 11.4561 294.222 11.514C294.048 11.6299 293.874 11.7507 293.699 11.8779C293.609 11.9406 293.522 12.0067 293.432 12.071C293.381 12.1097 293.329 12.1467 293.276 12.1854C293.216 12.232 293.152 12.2803 293.09 12.3286C292.914 12.4606 292.739 12.5991 292.562 12.744C292.492 12.8003 292.421 12.8583 292.351 12.9162C292.247 13.0032 292.142 13.0901 292.04 13.1803C291.96 13.2495 291.881 13.3203 291.801 13.3896C291.528 13.6327 291.256 13.8886 290.988 14.1559C286.623 18.4913 285.138 23.7911 286.573 29.9104C286.814 30.6509 287.107 31.3834 287.45 32.0886C287.964 33.1463 288.587 34.1348 289.302 35.0331C289.563 35.3631 289.842 35.6867 290.136 35.9974C292.233 38.2336 294.944 39.771 297.973 40.444C298.013 40.4536 298.049 40.4617 298.089 40.4665H298.096L298.104 40.4697C298.868 40.6597 299.662 40.7692 300.461 40.7949C300.577 40.7982 300.694 40.7998 300.812 40.7998C305.992 40.7998 310.532 37.1759 311.806 32.2029C311.902 31.8342 311.979 31.4575 312.036 31.076C312.122 30.506 312.165 29.9216 312.165 29.3373C312.165 29.0877 312.157 28.8382 312.143 28.5919C311.944 25.4993 310.515 22.6191 308.154 20.5971L308.035 20.4957L308.127 20.3669L308.135 20.354L308.231 20.2204L308.368 20.3105C309.467 21.0398 310.438 21.9124 311.261 22.8976C311.773 23.5094 312.228 24.1646 312.62 24.8537C312.803 25.1724 312.972 25.5009 313.129 25.8341C313.593 26.8242 313.936 27.8722 314.148 28.9589C314.32 29.8202 314.406 30.7041 314.406 31.6024Z" fill="white"/>
<path d="M347.818 28.014C347.743 30.651 347.105 33.2091 345.909 35.5499C344.681 37.9567 342.947 39.9852 340.757 41.5726C338.647 43.1052 336.22 44.1581 333.546 44.7038C333.53 44.707 333.501 44.7135 333.459 44.7231C333.03 44.8165 330.882 45.2544 328.181 45.3027C328.02 45.3059 327.857 45.3075 327.691 45.3075C324.264 45.3075 319.49 44.6378 316.216 41.447L316.203 41.4357C315.795 41.0638 315.411 40.671 315.063 40.2718C315.041 40.246 315.02 40.2219 314.999 40.1977L314.944 40.1349C314.773 39.9305 314.597 39.7147 314.419 39.4765L314.36 39.4491V39.3944C314.304 39.3203 314.251 39.2463 314.199 39.1722C314.138 39.0869 314.081 39.0016 314.025 38.9162C313.996 38.8744 313.968 38.8309 313.939 38.7858L313.907 38.7375C313.857 38.6603 313.81 38.583 313.763 38.5073C313.519 38.1097 313.309 37.7169 313.13 37.3482C312.824 36.7219 312.607 36.1569 312.46 35.7351C312.411 35.5853 312.368 35.4517 312.333 35.339C312.298 35.2167 312.259 35.083 312.22 34.9301C312.207 34.8786 312.199 34.8528 312.199 34.8528C311.979 33.9915 311.845 33.1013 311.807 32.2029C311.902 31.8343 311.979 31.4575 312.036 31.076C312.122 30.5061 312.165 29.9217 312.165 29.3373C312.165 29.0878 312.157 28.8382 312.143 28.5919C312.368 27.6356 312.7 26.7132 313.129 25.8342C313.593 26.8242 313.936 27.8723 314.148 28.959C314.141 29.0846 314.14 29.2101 314.14 29.3373C314.14 29.9217 314.186 30.5061 314.275 31.076C314.31 31.303 314.353 31.5284 314.404 31.7522C314.637 32.7938 315.019 33.7822 315.526 34.6935C317.551 38.3415 321.568 40.7998 326.044 40.7998C326.166 40.7998 326.288 40.7998 326.41 40.795C326.453 40.7934 326.498 40.7918 326.54 40.7902H326.549C327.339 40.7563 328.125 40.6501 328.881 40.4698H328.889L328.897 40.4666C328.938 40.4617 328.976 40.4537 329.018 40.444C332.195 39.7711 335.034 38.2336 337.233 35.9975C337.541 35.6868 337.836 35.3632 338.108 35.0331C338.856 34.1348 339.51 33.1463 340.048 32.0886C340.408 31.3835 340.716 30.651 340.968 29.9104C342.473 23.7912 340.917 18.4914 336.341 14.1559C333.946 11.8876 331.313 10.4837 329.878 9.82045C329.965 9.7625 330.053 9.70776 330.141 9.65302C330.283 9.56448 330.468 9.44857 330.656 9.33587C330.756 9.27631 330.85 9.21996 330.946 9.16361L330.954 9.15878C331.099 9.07185 331.232 8.99457 331.358 8.92374L331.377 8.91086C331.404 8.89476 331.429 8.87866 331.456 8.86578L331.479 8.8529C331.64 8.75953 331.801 8.66776 331.962 8.57922C332.236 8.42628 332.487 8.29105 332.723 8.16547L332.753 8.15099L332.764 8.14294C332.912 8.06405 333.066 7.98516 333.212 7.91111C333.359 7.83383 333.509 7.75817 333.691 7.67123L333.694 7.66801H333.697C333.89 7.56981 334.089 7.47322 334.274 7.38467C334.31 7.36857 334.338 7.35408 334.367 7.33959C334.391 7.32832 334.415 7.31706 334.439 7.30579L334.659 7.42814L334.807 7.50863L334.828 7.5199L334.845 7.536L334.874 7.56498C335.056 7.65835 335.206 7.73563 335.348 7.81291L335.496 7.8934C335.541 7.91916 335.593 7.94653 335.644 7.97551C336.734 8.58083 337.769 9.26021 338.74 10.0056C339.48 10.5723 340.185 11.1792 340.848 11.8216C343.352 14.2396 345.292 17.152 346.497 20.3685C347.272 22.4389 347.708 24.5382 347.805 26.6021C347.827 27.0738 347.832 27.5455 347.818 28.014Z" fill="white"/>
<path d="M338.496 8.94947C337.182 7.81771 336.131 7.04656 335.619 6.68595C335.512 6.56681 335.4 6.48954 335.276 6.4509H335.274C335.262 6.44446 335.247 6.44124 335.233 6.43802H335.225C335.195 6.42836 335.163 6.42514 335.129 6.42192C335.113 6.42031 335.096 6.42031 335.078 6.42031C335.019 6.42031 334.958 6.42514 334.896 6.43802C334.887 6.43802 334.877 6.43802 334.864 6.44285C334.831 6.44929 334.797 6.45895 334.761 6.47022C334.703 6.48632 334.643 6.50725 334.581 6.533C334.569 6.53622 334.561 6.53944 334.552 6.54427C334.541 6.5491 334.526 6.55554 334.515 6.56037C334.491 6.56842 334.469 6.57969 334.445 6.59096C334.429 6.5974 334.413 6.60545 334.396 6.6135C334.333 6.64248 334.273 6.67146 334.21 6.70204C334.203 6.70526 334.198 6.70848 334.19 6.7117C334.128 6.74229 334.064 6.77127 334.002 6.80347C333.919 6.84372 333.836 6.88235 333.754 6.9226C333.64 6.97895 333.525 7.03368 333.411 7.09164C333.249 7.17053 333.088 7.25102 332.925 7.33635C332.762 7.41845 332.601 7.50056 332.44 7.58749C332.437 7.5891 332.435 7.59071 332.432 7.59232C332.171 7.73077 331.911 7.87244 331.652 8.01572C331.488 8.10588 331.325 8.19925 331.161 8.29424C331.121 8.31517 331.085 8.33771 331.045 8.36185C330.904 8.44074 330.767 8.52123 330.629 8.60495C330.53 8.66291 330.431 8.72247 330.33 8.78204C330.155 8.88668 329.979 8.99616 329.806 9.10402C329.592 9.23764 329.38 9.37126 329.169 9.5081C326.259 11.3965 323.589 13.6295 321.219 16.1538C318.409 18.9582 315.91 22.0782 313.774 25.4574C311.641 22.0782 309.14 18.9582 306.331 16.1538C303.901 13.5667 301.156 11.2854 298.159 9.36804C298.094 9.32458 298.027 9.28272 297.96 9.24086C297.888 9.19417 297.817 9.1491 297.745 9.10402C297.569 8.99616 297.394 8.88668 297.218 8.78204C297.12 8.72247 297.021 8.66291 296.922 8.60495C296.783 8.52123 296.644 8.44074 296.504 8.36185C296.466 8.33771 296.427 8.31517 296.388 8.29424C296.225 8.19925 296.061 8.10588 295.896 8.01572C295.638 7.87244 295.38 7.73077 295.118 7.59232C295.115 7.59071 295.113 7.5891 295.109 7.58749C294.949 7.50056 294.786 7.41845 294.624 7.33635C294.463 7.25102 294.3 7.17053 294.137 7.09164C293.965 7.00471 293.79 6.91938 293.614 6.83567C293.613 6.83406 293.611 6.83245 293.608 6.83245C293.589 6.82279 293.568 6.81313 293.549 6.80347C293.503 6.78093 293.458 6.76 293.412 6.73746C293.394 6.72941 293.377 6.71975 293.359 6.7117C293.353 6.70848 293.346 6.70526 293.338 6.70204C293.276 6.67146 293.215 6.64248 293.153 6.6135C293.137 6.60545 293.12 6.5974 293.104 6.59096C293.08 6.57969 293.058 6.56842 293.034 6.56037C293.022 6.55554 293.008 6.5491 292.997 6.54427C292.987 6.53944 292.979 6.53622 292.97 6.533C292.906 6.50725 292.847 6.48632 292.788 6.47022C292.785 6.46861 292.783 6.46861 292.78 6.46861C292.748 6.45734 292.715 6.44929 292.684 6.44285C292.672 6.43963 292.662 6.43963 292.654 6.43802C292.59 6.42514 292.531 6.42031 292.471 6.42031C292.453 6.42031 292.437 6.42031 292.42 6.42192C292.388 6.42514 292.354 6.42836 292.324 6.43802H292.318C292.302 6.44124 292.287 6.44446 292.275 6.4509H292.273C292.15 6.48954 292.037 6.56681 291.932 6.68595C291.571 6.9387 290.941 7.39752 290.142 8.0447C289.807 8.31356 289.441 8.61461 289.053 8.94947C289.24 8.6291 289.428 8.30551 289.618 7.98675C290.07 7.22204 290.482 6.42675 290.924 5.65561C290.956 5.59765 290.989 5.5413 291.023 5.48657C291.126 5.30465 291.233 5.12756 291.342 4.95047C292.15 3.64645 292.968 2.3537 293.79 1.05612C293.769 1.09797 293.727 1.18169 293.676 1.29438C293.66 1.3298 293.641 1.37005 293.622 1.41351C293.603 1.45859 293.584 1.50528 293.563 1.55357C293.544 1.60187 293.522 1.65178 293.501 1.70652C293.469 1.78862 293.436 1.87395 293.404 1.9641C293.381 2.02528 293.361 2.08806 293.34 2.15085C293.327 2.1911 293.314 2.22973 293.302 2.27159C293.265 2.39233 293.228 2.51952 293.196 2.64831C293.187 2.68695 293.179 2.72558 293.169 2.76422C293.161 2.80447 293.153 2.84311 293.145 2.88174C293.137 2.92199 293.131 2.96224 293.123 3.00088C293.097 3.15865 293.078 3.31642 293.072 3.47097C293.07 3.47258 293.072 3.47258 293.072 3.47258C293.069 3.59171 293.07 3.70762 293.082 3.82032C293.085 3.86379 293.089 3.90564 293.096 3.94589C293.102 3.98453 293.11 4.02317 293.118 4.06019C293.152 4.20991 293.206 4.34998 293.281 4.47555C293.601 4.57375 293.924 4.67357 294.247 4.76855C298.684 6.10155 303.105 7.09969 307.513 7.68891H320.037C324.444 7.09969 328.866 6.10155 333.303 4.76855C333.625 4.67357 333.947 4.57375 334.27 4.47555C334.923 3.39208 333.856 1.24286 333.751 1.04163C334.574 2.34404 335.395 3.64162 336.207 4.95047C336.317 5.12756 336.423 5.30465 336.526 5.48657C336.561 5.5413 336.593 5.59765 336.625 5.65561C337.068 6.42675 337.48 7.22204 337.933 7.98675C338.121 8.30551 338.309 8.6291 338.496 8.94947Z" fill="white"/>
<path d="M286.594 11.9181L289.468 9.43889C289.535 9.38094 289.602 9.32459 289.669 9.26824C288.563 10.0635 287.535 10.9522 286.594 11.9181ZM293.072 3.47098C293.078 3.31643 293.098 3.15866 293.123 3.00089C293.096 3.15866 293.077 3.31643 293.072 3.47098ZM293.072 3.47259C293.067 3.59173 293.069 3.70764 293.082 3.82033C293.07 3.70764 293.069 3.59173 293.072 3.47259ZM293.196 2.64832C293.228 2.51953 293.265 2.39235 293.302 2.27161C293.263 2.39235 293.228 2.51953 293.196 2.64832ZM311.261 22.8977C311.73 23.54 312.184 24.192 312.62 24.8537C312.228 24.1647 311.773 23.5094 311.261 22.8977ZM293.41 6.94837L293.614 6.83568C293.614 6.83568 293.611 6.83246 293.608 6.83246L293.41 6.94837ZM338.74 10.0056L340.848 11.8216C340.185 11.1792 339.48 10.5723 338.74 10.0056Z" fill="white"/>
<path d="M188.774 57.1596C188.939 56.8489 189.107 56.4609 189.273 56.2275C189.451 55.9812 189.683 55.8266 189.939 55.8266C190.349 55.8266 190.772 56.1502 190.772 56.564C190.772 57.0164 190.285 57.8583 189.823 58.2978L190.592 59.23C190.706 59.3716 190.772 59.5536 190.772 59.7468C190.772 60.1476 190.413 60.5614 189.81 60.5614C189.515 60.5614 189.362 60.4068 189.182 60.1991L188.592 59.5133C187.759 60.3279 186.772 60.6386 185.619 60.6386C183.606 60.6386 182.748 59.3056 182.748 58.0644C182.748 56.6799 183.633 55.7751 184.761 55.2181C184.3 54.6884 183.876 54.1443 183.876 53.3683C183.876 51.8808 185.067 51.0662 186.439 51.0662C188.464 51.0662 189.093 52.3476 189.093 53.3168C189.093 54.3391 188.413 55.1923 187.49 55.6463L188.772 57.1596H188.774ZM185.89 56.3708C185.147 56.7845 184.621 57.2498 184.621 57.9099C184.621 58.6472 185.094 59.1656 185.877 59.1656C186.66 59.1656 187.185 58.7261 187.569 58.3767L185.89 56.3708ZM186.429 54.5854C186.852 54.3262 187.48 53.964 187.48 53.2395C187.48 52.7743 187.07 52.3863 186.518 52.3863C185.967 52.3863 185.57 52.7485 185.57 53.2138C185.57 53.861 185.954 54.1845 186.428 54.5854H186.429Z" fill="white"/>
</g>
<defs>
<clipPath id="clip0_1_2230">
<rect width="405" height="90" fill="white" transform="translate(0.502563 0.357422)"/>
</clipPath>
</defs>
</svg>
