<svg width="24" height="25" viewBox="0 0 24 25" fill="none" xmlns="http://www.w3.org/2000/svg">
<path d="M16.8218 6.57663C16.8218 3.90514 14.6561 1.73942 11.9846 1.73942C10.6982 1.73402 9.46256 2.24124 8.55098 3.14897C7.6394 4.05671 7.12697 5.29017 7.12697 6.57663M16.6681 23.2607H7.32169C3.88853 23.2607 1.25474 22.0207 2.00286 17.0298L2.87396 10.266C3.33513 7.77567 4.9236 6.82259 6.31736 6.82259H17.7134C19.1276 6.82259 20.6239 7.84741 21.1568 10.266L22.0279 17.0298C22.6633 21.457 20.1012 23.2607 16.6681 23.2607Z" stroke="white" stroke-width="2" stroke-linecap="round" stroke-linejoin="round"/>
<path d="M15.3043 11.619H15.2539" stroke="white" stroke-width="2" stroke-linecap="round" stroke-linejoin="round"/>
<path d="M8.77709 11.619H8.72559" stroke="white" stroke-width="2" stroke-linecap="round" stroke-linejoin="round"/>
</svg>
