<svg width="31" height="31" viewBox="0 0 31 31" fill="none" xmlns="http://www.w3.org/2000/svg">
<rect width="31" height="31" fill="#1E1E1E"/>
<g id="Home Animation Screen" clip-path="url(#clip0_0_1)">
<rect width="1440" height="9888" transform="translate(-1350 -48)" fill="white"/>
<g id="Frame 2">
<rect width="1440" height="210" transform="translate(-1350 -38)" fill="white"/>
<g id="Frame 4">
<path id="Vector" d="M6.65155 22.5715C5.86338 22.5715 5.09291 22.8053 4.43758 23.2432C3.78224 23.6811 3.27146 24.3035 2.96984 25.0316C2.66822 25.7598 2.58931 26.5611 2.74307 27.3342C2.89684 28.1072 3.27637 28.8173 3.83369 29.3746C4.39101 29.9319 5.10108 30.3115 5.87411 30.4653C6.64713 30.619 7.44839 30.5401 8.17656 30.2385C8.90474 29.9369 9.52712 29.4261 9.965 28.7707C10.4029 28.1154 10.6366 27.3449 10.6366 26.5567C10.6366 25.4998 10.2168 24.4861 9.46941 23.7388C8.72207 22.9914 7.70845 22.5715 6.65155 22.5715ZM6.65155 28.5493C6.25747 28.5493 5.87223 28.4324 5.54456 28.2135C5.21689 27.9945 4.96151 27.6833 4.8107 27.3192C4.65989 26.9551 4.62043 26.5545 4.69731 26.168C4.77419 25.7814 4.96396 25.4264 5.24262 25.1477C5.52128 24.8691 5.87632 24.6793 6.26283 24.6024C6.64934 24.5255 7.04997 24.565 7.41406 24.7158C7.77814 24.8666 8.08933 25.122 8.30827 25.4497C8.52722 25.7774 8.64408 26.1626 8.64408 26.5567C8.64408 27.0852 8.43415 27.592 8.06048 27.9657C7.68681 28.3393 7.18 28.5493 6.65155 28.5493ZM20.5992 22.5715C19.8111 22.5715 19.0406 22.8053 18.3853 23.2432C17.7299 23.6811 17.2191 24.3035 16.9175 25.0316C16.6159 25.7598 16.537 26.5611 16.6908 27.3342C16.8445 28.1072 17.2241 28.8173 17.7814 29.3746C18.3387 29.9319 19.0488 30.3115 19.8218 30.4653C20.5948 30.619 21.3961 30.5401 22.1242 30.2385C22.8524 29.9369 23.4748 29.4261 23.9127 28.7707C24.3506 28.1154 24.5843 27.3449 24.5843 26.5567C24.5843 25.4998 24.1644 24.4861 23.4171 23.7388C22.6697 22.9914 21.6561 22.5715 20.5992 22.5715ZM20.5992 28.5493C20.2051 28.5493 19.8199 28.4324 19.4922 28.2135C19.1646 27.9945 18.9092 27.6833 18.7584 27.3192C18.6076 26.9551 18.5681 26.5545 18.645 26.168C18.7219 25.7814 18.9116 25.4264 19.1903 25.1477C19.469 24.8691 19.824 24.6793 20.2105 24.6024C20.597 24.5255 20.9977 24.565 21.3617 24.7158C21.7258 24.8666 22.037 25.122 22.256 25.4497C22.4749 25.7774 22.5918 26.1626 22.5918 26.5567C22.5918 27.0852 22.3818 27.592 22.0082 27.9657C21.6345 28.3393 21.1277 28.5493 20.5992 28.5493ZM29.5656 0.653255H26.5768C26.3492 0.646624 26.1262 0.718146 25.945 0.855913C25.7637 0.99368 25.6351 1.18938 25.5805 1.41043L24.8035 4.6384H1.67024C1.52711 4.63715 1.38539 4.66677 1.25473 4.72522C1.12407 4.78367 1.00754 4.8696 0.913077 4.97714C0.819883 5.08574 0.751177 5.21314 0.711637 5.35067C0.672096 5.48821 0.662649 5.63265 0.683937 5.77417L2.67646 19.7222C2.71007 19.9598 2.82835 20.1774 3.00956 20.3348C3.19077 20.4922 3.42273 20.5789 3.66276 20.579H23.588C23.8298 20.5814 24.0641 20.4957 24.2474 20.3381C24.4307 20.1805 24.5504 19.9616 24.5843 19.7222L26.5768 5.82398L27.3539 2.64583H29.5656C29.8298 2.64583 30.0832 2.54086 30.2701 2.35402C30.4569 2.16718 30.5619 1.91377 30.5619 1.64954C30.5619 1.38531 30.4569 1.1319 30.2701 0.94506C30.0832 0.75822 29.8298 0.653255 29.5656 0.653255ZM22.7213 18.5864H4.52951L2.81594 6.63097H24.4348L22.7213 18.5864Z" fill="#00C5F6"/>
</g>
</g>
<g id="Banners">
<rect width="1445.41" height="617" transform="translate(-1356 145)" fill="white"/>
<g id="Group 35716">
</g>
</g>
</g>
<defs>
<clipPath id="clip0_0_1">
<rect width="1440" height="9888" fill="white" transform="translate(-1350 -48)"/>
</clipPath>
</defs>
</svg>
