<svg width="53" height="54" viewBox="0 0 53 54" fill="none" xmlns="http://www.w3.org/2000/svg">
<g id="Group 17">
<g id="Group 35630">
<circle id="Ellipse 22" cx="26.1128" cy="26.9654" r="26.1128" transform="rotate(180 26.1128 26.9654)" fill="#00C5F6"/>
<path id="Vector" d="M23.9831 26.9285L29.9729 21.0793C30.288 20.7697 30.4649 20.3509 30.4649 19.9144C30.4649 19.4779 30.288 19.0591 29.9729 18.7495C29.8156 18.5946 29.6284 18.4717 29.4223 18.3878C29.2161 18.3039 28.9949 18.2607 28.7715 18.2607C28.5482 18.2607 28.327 18.3039 28.1208 18.3878C27.9146 18.4717 27.7275 18.5946 27.5702 18.7495L20.396 25.7553C20.2374 25.9089 20.1115 26.0917 20.0256 26.293C19.9397 26.4944 19.8955 26.7103 19.8955 26.9285C19.8955 27.1466 19.9397 27.3626 20.0256 27.5639C20.1115 27.7653 20.2374 27.948 20.396 28.1016L27.5702 35.1901C27.7283 35.3432 27.9158 35.4644 28.122 35.5466C28.3281 35.6288 28.5489 35.6705 28.7715 35.6692C28.9942 35.6705 29.215 35.6288 29.4211 35.5466C29.6273 35.4644 29.8148 35.3432 29.9729 35.1901C30.288 34.8805 30.4649 34.4617 30.4649 34.0252C30.4649 33.5887 30.288 33.1699 29.9729 32.8603L23.9831 26.9285Z" fill="white"/>
</g>
</g>
</svg>
