<svg width="53" height="54" viewBox="0 0 53 54" fill="none" xmlns="http://www.w3.org/2000/svg">
<g id="Group 16">
<g id="Group 35630">
<circle id="Ellipse 22" cx="26.2443" cy="26.9653" r="26.1128" fill="#00C5F6"/>
<path id="Vector" d="M28.3739 27.0022L22.3841 32.8514C22.069 33.161 21.8921 33.5798 21.8921 34.0163C21.8921 34.4528 22.069 34.8716 22.3841 35.1812C22.5414 35.336 22.7286 35.459 22.9347 35.5428C23.1409 35.6267 23.3621 35.6699 23.5855 35.6699C23.8088 35.6699 24.03 35.6267 24.2362 35.5428C24.4424 35.459 24.6295 35.336 24.7868 35.1812L31.961 28.1753C32.1196 28.0217 32.2455 27.839 32.3314 27.6376C32.4173 27.4363 32.4615 27.2203 32.4615 27.0022C32.4615 26.7841 32.4173 26.5681 32.3314 26.3668C32.2455 26.1654 32.1196 25.9827 31.961 25.829L24.7868 18.7406C24.6287 18.5875 24.4412 18.4663 24.2351 18.3841C24.0289 18.3019 23.8081 18.2602 23.5855 18.2614C23.3628 18.2602 23.142 18.3019 22.9359 18.3841C22.7297 18.4663 22.5422 18.5875 22.3841 18.7406C22.069 19.0502 21.8921 19.469 21.8921 19.9055C21.8921 20.342 22.069 20.7608 22.3841 21.0704L28.3739 27.0022Z" fill="white"/>
</g>
</g>
</svg>
