<svg width="77" height="77" viewBox="0 0 77 77" fill="none" xmlns="http://www.w3.org/2000/svg">
<path d="M34.6501 34.6501C34.7464 34.6501 34.7464 34.7463 34.7464 34.7463L33.4951 37.2488C33.3989 37.4413 33.2064 37.5376 33.0139 37.5376H30.3189C30.1264 37.5376 29.9339 37.4413 29.8376 37.2488L28.5864 34.7463C28.5864 34.6501 28.5864 34.6501 28.6826 34.6501H34.6501ZM9.43262 42.3501V57.5576C9.43262 60.9263 12.2239 63.7176 15.5926 63.7176H37.2489C37.1526 63.1401 37.1526 62.5626 37.1526 61.9851C37.1526 61.8889 37.1526 61.8888 37.1526 61.7926C37.1526 61.6963 37.1526 61.6964 37.1526 61.6001C37.1526 58.8088 37.9226 56.1138 39.2701 53.7076C39.2701 53.7076 39.4626 53.3226 39.5589 53.1301C40.9064 50.8201 42.8314 48.8951 45.1414 47.5476C45.2376 47.4514 45.3339 47.3551 45.4301 47.3551C45.5264 47.2589 45.6226 47.2588 45.7189 47.2588C48.2214 45.9113 50.9164 45.1413 53.7076 45.1413V42.2538C53.5151 40.6176 52.0714 35.9976 40.3289 34.6501C40.3289 34.6501 40.1364 34.6501 39.7514 34.6501L34.7464 52.3601L33.3026 39.4626C33.3026 39.3663 33.2064 39.2701 33.0139 39.2701H30.3189C30.2226 39.2701 30.1264 39.3663 30.0301 39.4626L28.3939 52.5526L23.3889 34.7463C23.4851 34.6501 10.2989 35.8051 9.43262 42.3501ZM44.5639 16.9401C44.4676 12.8013 43.3126 8.95135 41.3876 6.25635C39.1739 3.0801 35.9014 1.44385 31.9551 1.44385C28.0089 1.44385 24.7364 3.0801 22.3301 6.25635C20.2126 9.0476 18.9614 12.8013 18.8651 16.9401C18.6726 17.2288 18.3839 17.6138 18.4801 18.2876L18.6726 21.2713C18.7689 22.1376 19.1539 22.5226 19.4426 22.7151C19.7314 22.9076 20.1164 23.0038 20.5976 22.9076L21.4639 22.8113C21.9451 23.1964 22.4264 23.2926 22.4264 23.2926C23.7739 26.3726 26.0839 28.9713 26.0839 28.9713C29.4526 32.9176 33.3026 31.3776 33.3026 31.3776C36.4789 30.5113 38.4039 27.7201 39.4626 25.6988C39.9439 25.6026 40.3289 25.5063 40.6176 25.4101C42.0614 24.8326 43.0239 23.9663 43.3126 22.7151C43.6976 22.6188 44.2751 22.2338 44.3714 21.2713L44.7564 18.2876C45.0451 17.6138 44.7564 17.1326 44.5639 16.9401ZM38.1151 24.2551C37.1526 24.4476 36.1901 24.5438 35.4201 24.5438C35.3239 24.0626 34.8426 23.5813 34.2651 23.5813H32.0514C31.3776 23.5813 30.8964 24.0626 30.8964 24.7363V25.9876C30.8964 26.6613 31.3776 27.1426 32.0514 27.1426H34.2651C34.8426 27.1426 35.3239 26.7576 35.4201 26.1801C35.7089 26.1801 36.2864 26.0838 36.9601 26.0838C36.3826 26.8538 35.7089 27.6238 35.0351 28.2013C35.0351 28.2013 30.9926 32.0513 27.5276 27.5276C27.5276 27.5276 25.0251 25.4101 23.2926 18.1913C23.1964 17.7101 23.4851 17.3251 23.9664 17.2288C25.2176 17.1326 27.6239 16.4588 30.0301 12.8976C30.2226 12.6088 30.5114 12.8013 30.5114 13.0901C30.4151 13.9563 30.2226 15.2076 29.6451 16.0738C29.5489 16.2663 29.6451 16.4588 29.8376 16.3626C31.0889 15.9776 34.1689 14.8226 36.4789 11.5501C36.5751 11.3576 36.8639 11.4538 36.9601 11.6463C37.3451 12.8013 38.3076 15.6888 39.8476 17.0363C40.0401 17.2288 40.1364 17.4213 40.0401 17.7101C40.0401 18.6726 39.4626 21.5601 38.1151 24.2551ZM67.5676 61.8889C67.5676 61.7926 67.5676 61.6964 67.5676 61.6001C67.5676 61.3114 67.5676 61.0226 67.4714 60.7338C67.4714 60.5413 67.4714 60.3489 67.3751 60.1563C67.3751 59.8676 67.2789 59.4826 67.1826 59.1939C67.1826 59.0976 67.1826 59.0014 67.1826 58.9051C66.6051 56.4026 65.3539 54.1889 63.6214 52.3601L63.5251 52.2638C62.7551 51.4938 61.7926 50.7238 60.8301 50.1463C60.8301 50.1463 60.8301 50.1464 60.7339 50.0501C60.7339 50.0501 60.7339 50.0501 60.6376 50.0501C58.6164 48.8951 56.3064 48.2213 53.9001 48.2213C51.3976 48.2213 49.0876 48.8951 47.1626 50.0501H47.0664C47.0664 50.0501 47.0664 50.0501 46.9701 50.1463C44.9489 51.3013 43.3126 53.0339 42.0614 55.0551C42.0614 55.0551 42.0614 55.0551 41.9651 55.1513C41.9651 55.1513 41.9651 55.1514 41.9651 55.2476C41.0989 56.7876 40.5214 58.4238 40.3289 60.2526C40.2326 60.8301 40.2326 61.4076 40.2326 62.0813C40.2326 62.1776 40.2326 62.2739 40.2326 62.3701C40.2326 62.6589 40.2326 62.9476 40.3289 63.2363C40.3289 63.4288 40.3289 63.6214 40.4251 63.8139C40.4251 64.1026 40.5214 64.4876 40.6176 64.7764C40.6176 64.8726 40.6176 64.9688 40.6176 65.0651C41.1951 67.5676 42.4464 69.7813 44.1789 71.6101L44.2751 71.7064C45.0451 72.4763 46.0076 73.2463 46.9701 73.8238C46.9701 73.8238 46.9701 73.8239 47.0664 73.9201C47.0664 73.9201 47.0664 73.9201 47.1626 73.9201C49.1839 75.0751 51.4939 75.7488 53.9001 75.7488C56.4026 75.7488 58.7126 75.0751 60.6376 73.9201H60.7339C60.7339 73.9201 60.7339 73.9201 60.8301 73.8238C62.8514 72.6688 64.4876 70.9363 65.7389 68.9151C65.7389 68.9151 65.7389 68.9151 65.8351 68.8188C65.8351 68.8188 65.8351 68.8189 65.8351 68.7226C66.7014 67.1826 67.2789 65.5463 67.4714 63.7176C67.4714 63.1401 67.5676 62.5626 67.5676 61.8889ZM60.5414 71.4176L59.5789 69.6851C59.3864 69.3964 59.0014 69.2038 58.7126 69.2038C58.5201 69.2038 58.3276 69.2038 58.2314 69.3001C57.7501 69.5889 57.5576 70.1664 57.8464 70.6476L58.8089 72.3801C57.5576 72.9576 56.3064 73.3426 54.8626 73.4389V71.5139C54.8626 70.9364 54.3814 70.4551 53.9001 70.4551C53.3226 70.4551 52.9376 70.9364 52.9376 71.5139V73.4389C51.5901 73.3426 50.2426 72.9576 48.9914 72.3801L49.9539 70.6476C50.2426 70.1664 50.0501 69.5889 49.5689 69.3001C49.3764 69.2038 49.2801 69.2038 49.0876 69.2038C48.7026 69.2038 48.4139 69.3964 48.2214 69.6851L47.2589 71.4176C46.6814 71.0326 46.2001 70.6476 45.7189 70.1664C45.7189 70.1664 45.7189 70.1664 45.7189 70.0701C45.2376 69.5889 44.8526 69.1076 44.3714 68.5301L46.1039 67.5676C46.5851 67.2788 46.7776 66.7014 46.4889 66.2201C46.3926 66.1239 46.2964 66.0276 46.2001 65.9314C45.9114 65.6426 45.4301 65.6426 45.0451 65.8351L43.3126 66.7976C42.7351 65.6426 42.4464 64.3913 42.3501 63.0438H44.2751C44.8526 63.0438 45.2376 62.5626 45.2376 62.0813C45.2376 61.5038 44.7564 61.0226 44.1789 61.0226H42.2539C42.2539 60.6376 42.3501 60.3489 42.3501 59.9638C42.3501 59.8676 42.3501 59.7714 42.4464 59.6751C42.4464 59.4826 42.5426 59.1938 42.6389 59.0014C42.8314 58.3276 43.0239 57.7501 43.3126 57.0763L45.0451 58.0388C45.5264 58.3276 46.1039 58.1351 46.3926 57.6539C46.4889 57.5576 46.4889 57.3651 46.4889 57.2688C46.5851 56.8839 46.3926 56.4988 46.0076 56.3064L44.3714 55.3438C44.7564 54.7663 45.1414 54.2851 45.6226 53.8039C45.6226 53.8039 45.6226 53.8038 45.6226 53.7076C46.1039 53.2263 46.5851 52.8414 47.1626 52.3601L48.1251 54.0926C48.3176 54.3814 48.7026 54.5738 48.9914 54.5738C49.1839 54.5738 49.3764 54.5738 49.4726 54.4776C49.9539 54.1888 50.1464 53.6114 49.8576 53.1301L48.8951 51.3976C50.1464 50.8201 51.3976 50.4351 52.8414 50.3388V52.2638C52.8414 52.8414 53.3226 53.3226 53.8039 53.3226C54.3814 53.3226 54.7664 52.8414 54.7664 52.2638V50.3388C56.1139 50.4351 57.4614 50.8201 58.7126 51.3976L57.7501 53.1301C57.4614 53.6114 57.6539 54.1888 58.1351 54.4776C58.3276 54.5738 58.4239 54.5738 58.6164 54.5738C59.0014 54.5738 59.2901 54.3814 59.4826 54.0926L60.4451 52.3601C61.0226 52.7451 61.5039 53.1301 61.9851 53.6114C61.9851 53.6114 61.9851 53.6113 61.9851 53.7076C62.4664 54.1889 62.8514 54.6701 63.3326 55.2476L61.6001 56.2101C61.1189 56.4989 60.9264 57.0763 61.2151 57.5576C61.3114 57.6539 61.4076 57.7501 61.5039 57.8463C61.7926 58.1351 62.2739 58.1351 62.6589 57.9426L64.3914 56.9801C64.9689 58.1351 65.2576 59.3863 65.3539 60.7338H63.4289C62.8514 60.7338 62.4664 61.2151 62.4664 61.6964C62.4664 62.2738 62.9476 62.7551 63.5251 62.7551H65.4501C65.4501 63.1401 65.3539 63.4289 65.3539 63.8139C65.3539 63.9101 65.3539 64.0063 65.2576 64.1026C65.2576 64.2951 65.1614 64.5839 65.0651 64.7764C64.8726 65.4501 64.6801 66.0276 64.3914 66.7014L62.6589 65.7389C62.1776 65.4501 61.6001 65.6426 61.3114 66.1238C61.2151 66.2201 61.2151 66.4126 61.2151 66.5089C61.1189 66.8939 61.3114 67.2788 61.6964 67.4714L63.3326 68.4338C62.9476 69.0113 62.5626 69.4926 62.0814 69.9738C62.0814 69.9738 62.0814 69.9739 62.0814 70.0701C61.6001 70.6476 61.1189 71.0326 60.5414 71.4176ZM62.5626 60.1563L55.2476 61.0226C54.9589 60.7339 54.6701 60.4451 54.2851 60.3489C54.0926 60.2526 53.9001 60.2526 53.7076 60.2526L52.1676 56.7876C51.9751 56.4026 51.5901 56.2101 51.2051 56.4026H51.1089C50.7239 56.5951 50.5314 56.9801 50.7239 57.3651L52.0714 60.9263C51.8789 61.1189 51.6864 61.4076 51.5901 61.7926C51.3014 62.8513 51.8789 64.0064 52.9376 64.2951C53.9964 64.5839 55.1514 64.0064 55.4401 62.9476C55.4401 62.8514 55.4401 62.8513 55.4401 62.7551L62.4664 60.4451C62.6589 60.3489 62.6589 60.1563 62.5626 60.1563Z" fill="white"/>
</svg>
