<svg width="61" height="52" viewBox="0 0 61 52" fill="none" xmlns="http://www.w3.org/2000/svg">
<path d="M45.5455 0.0315958C50.0456 0.0315954 53.6456 1.62797 56.3457 4.82073C58.9171 8.14121 60.2029 12.4195 60.2029 17.6557C60.2029 24.8075 58.2743 31.2568 54.4171 37.0038C50.4313 42.8785 44.3884 47.7954 36.2883 51.7544L34.1668 48.6893C38.024 46.3906 41.5598 43.1339 44.7741 38.9195C47.8599 34.8327 49.4027 30.6821 49.4027 26.4677C49.4027 25.3183 49.0813 24.3605 48.4384 23.5942C47.7956 22.9556 46.8313 22.6364 45.5455 22.6364C42.3312 22.6364 39.6312 21.487 37.4454 19.1882C35.1311 17.0171 33.974 14.3352 33.974 11.1424C33.974 7.94965 35.1311 5.26773 37.4454 3.09664C39.6312 1.05328 42.3312 0.0315961 45.5455 0.0315958ZM12.1808 0.0315987C16.6809 0.0315983 20.2809 1.62797 22.981 4.82074C25.5524 8.14121 26.8381 12.4195 26.8381 17.6557C26.8381 24.8075 24.9096 31.2568 21.0524 37.0038C17.0666 42.8785 11.0237 47.7954 2.92354 51.7544L0.802083 48.6893C4.65928 46.3906 8.19504 43.1339 11.4094 38.9195C14.4951 34.8327 16.038 30.6821 16.038 26.4677C16.038 25.3183 15.7166 24.3605 15.0737 23.5942C14.4308 22.9557 13.4665 22.6364 12.1808 22.6364C8.96648 22.6364 6.26644 21.487 4.0807 19.1882C1.76638 17.0171 0.609226 14.3352 0.609226 11.1424C0.609225 7.94965 1.76638 5.26773 4.0807 3.09664C6.26644 1.05328 8.96648 0.031599 12.1808 0.0315987Z" fill="#00C5F6"/>
</svg>
