<svg width="35" height="40" viewBox="0 0 35 40" fill="none" xmlns="http://www.w3.org/2000/svg">
<path id="Vector" d="M34.6683 17.2814V10.4738C31.5281 10.4738 29.1315 9.62286 27.585 7.96889C25.9977 6.08127 25.1085 3.69082 25.0704 1.20922V0.71782L18.7308 0.562012V28.212C18.5134 29.4184 17.9365 30.528 17.0782 31.391C16.2199 32.254 15.1214 32.8289 13.9311 33.038C12.7408 33.2472 11.5159 33.0805 10.4218 32.5605C9.32771 32.0405 8.41712 31.1923 7.81296 30.1302C7.20879 29.0682 6.94014 27.8436 7.04326 26.6216C7.14639 25.3997 7.61633 24.2393 8.38964 23.2971C9.16295 22.3549 10.2024 21.6762 11.3677 21.3528C12.5329 21.0293 13.7679 21.0766 14.9058 21.4883V14.8964C14.2424 14.786 13.5712 14.7299 12.8989 14.7286C10.4799 14.7286 8.11527 15.4568 6.10396 16.8212C4.09266 18.1855 2.52504 20.1248 1.59934 22.3936C0.673634 24.6625 0.431429 27.1591 0.903347 29.5677C1.37527 31.9763 2.54011 34.1887 4.25059 35.9252C5.96106 37.6617 8.14033 38.8443 10.5128 39.3234C12.8853 39.8025 15.3445 39.5566 17.5793 38.6168C19.8142 37.677 21.7243 36.0856 23.0682 34.0436C24.4121 32.0017 25.1294 29.6011 25.1294 27.1453C25.1281 26.6364 25.0966 26.1282 25.035 25.6232V14.6567C27.9177 16.4843 31.2716 17.3982 34.6683 17.2814Z" fill="white"/>
</svg>
